<svg height="1458" viewBox="0 0 2518 1458" width="2518" xmlns="http://www.w3.org/2000/svg"><g fill-rule="evenodd"><path d="m396 976c0 44.182739 35.81723 80 80 80h1574c44.182617 0 80-35.817261 80-80v-633c0-44.182861-35.817383-80-80-80h-1574c-44.18277 0-80 35.817139-80 80zm122 7.5c0-19.606079-15.89389-35.5-35.5-35.5s-35.5 15.893921-35.5 35.5 15.89389 35.5 35.5 35.5 35.5-15.893921 35.5-35.5zm1524.5-35.5c19.606201 0 35.5 15.893921 35.5 35.5s-15.893799 35.5-35.5 35.5c-19.606079 0-35.5-15.893921-35.5-35.5s15.893921-35.5 35.5-35.5zm-1550-625c19.606079 0 35.5 15.893921 35.5 35.5s-15.893921 35.5-35.5 35.5c-19.60611 0-35.5-15.893921-35.5-35.5s15.89389-35.5 35.5-35.5zm1576.5 35.5c0-19.606079-15.893799-35.5-35.5-35.5-19.606079 0-35.5 15.893921-35.5 35.5s15.893921 35.5 35.5 35.5c19.606201 0 35.5-15.893921 35.5-35.5z" fill="#66b48c"/><g fill="#d5d5d5"><path d="m635 326c0-6.075073-4.924866-11-11-11s-11 4.924927-11 11 4.924866 11 11 11 11-4.924927 11-11z"/><path d="m635 393c0-6.075073-4.924866-11-11-11s-11 4.924927-11 11 4.924866 11 11 11 11-4.924927 11-11z"/><path d="m701 326c0-6.075073-4.924866-11-11-11s-11 4.924927-11 11 4.924866 11 11 11 11-4.924927 11-11z"/><path d="m701 393c0-6.075073-4.924866-11-11-11s-11 4.924927-11 11 4.924866 11 11 11 11-4.924927 11-11z"/><path d="m768 326c0-6.075073-4.924866-11-11-11s-11 4.924927-11 11 4.924866 11 11 11 11-4.924927 11-11z"/><path d="m768 393c0-6.075073-4.924866-11-11-11s-11 4.924927-11 11 4.924866 11 11 11 11-4.924927 11-11z"/><path d="m838 326c0-6.075073-4.924866-11-11-11s-11 4.924927-11 11 4.924866 11 11 11 11-4.924927 11-11z"/><path d="m838 393c0-6.075073-4.924866-11-11-11s-11 4.924927-11 11 4.924866 11 11 11 11-4.924927 11-11z"/><path d="m907 326c0-6.075073-4.924866-11-11-11s-11 4.924927-11 11 4.924866 11 11 11 11-4.924927 11-11z"/><path d="m907 393c0-6.075073-4.924866-11-11-11s-11 4.924927-11 11 4.924866 11 11 11 11-4.924927 11-11z"/><path d="m971 326c0-6.075073-4.924866-11-11-11s-11 4.924927-11 11 4.924866 11 11 11 11-4.924927 11-11z"/><path d="m971 393c0-6.075073-4.924866-11-11-11s-11 4.924927-11 11 4.924866 11 11 11 11-4.924927 11-11z"/><path d="m1037 326c0-6.075073-4.924927-11-11-11-6.075134 0-11 4.924927-11 11s4.924866 11 11 11c6.075073 0 11-4.924927 11-11z"/><path d="m1037 393c0-6.075073-4.924927-11-11-11-6.075134 0-11 4.924927-11 11s4.924866 11 11 11c6.075073 0 11-4.924927 11-11z"/><path d="m1104 326c0-6.075073-4.924927-11-11-11s-11 4.924927-11 11 4.924927 11 11 11 11-4.924927 11-11z"/><path d="m1104 393c0-6.075073-4.924927-11-11-11s-11 4.924927-11 11 4.924927 11 11 11 11-4.924927 11-11z"/><path d="m1174 326c0-6.075073-4.924927-11-11-11s-11 4.924927-11 11 4.924927 11 11 11 11-4.924927 11-11z"/><path d="m1174 393c0-6.075073-4.924927-11-11-11s-11 4.924927-11 11 4.924927 11 11 11 11-4.924927 11-11z"/><path d="m1243 326c0-6.075073-4.924927-11-11-11s-11 4.924927-11 11 4.924927 11 11 11 11-4.924927 11-11z"/><path d="m1243 393c0-6.075073-4.924927-11-11-11s-11 4.924927-11 11 4.924927 11 11 11 11-4.924927 11-11z"/><path d="m1314 326c0-6.075073-4.924927-11-11-11s-11 4.924927-11 11 4.924927 11 11 11 11-4.924927 11-11z"/><path d="m1314 393c0-6.075073-4.924927-11-11-11s-11 4.924927-11 11 4.924927 11 11 11 11-4.924927 11-11z"/><path d="m1380 326c0-6.075073-4.924927-11-11-11s-11 4.924927-11 11 4.924927 11 11 11 11-4.924927 11-11z"/><path d="m1380 393c0-6.075073-4.924927-11-11-11s-11 4.924927-11 11 4.924927 11 11 11 11-4.924927 11-11z"/><path d="m1447 326c0-6.075073-4.924927-11-11-11s-11 4.924927-11 11 4.924927 11 11 11 11-4.924927 11-11z"/><path d="m1447 393c0-6.075073-4.924927-11-11-11s-11 4.924927-11 11 4.924927 11 11 11 11-4.924927 11-11z"/><path d="m1517 326c0-6.075073-4.924927-11-11-11s-11 4.924927-11 11 4.924927 11 11 11 11-4.924927 11-11z"/><path d="m1517 393c0-6.075073-4.924927-11-11-11s-11 4.924927-11 11 4.924927 11 11 11 11-4.924927 11-11z"/><path d="m1586 326c0-6.075073-4.924927-11-11-11s-11 4.924927-11 11 4.924927 11 11 11 11-4.924927 11-11z"/><path d="m1586 393c0-6.075073-4.924927-11-11-11s-11 4.924927-11 11 4.924927 11 11 11 11-4.924927 11-11z"/><path d="m1648 326c0-6.075073-4.924927-11-11-11s-11 4.924927-11 11 4.924927 11 11 11 11-4.924927 11-11z"/><path d="m1648 393c0-6.075073-4.924927-11-11-11s-11 4.924927-11 11 4.924927 11 11 11 11-4.924927 11-11z"/><path d="m1714 326c0-6.075073-4.924927-11-11-11s-11 4.924927-11 11 4.924927 11 11 11 11-4.924927 11-11z"/><path d="m1714 393c0-6.075073-4.924927-11-11-11s-11 4.924927-11 11 4.924927 11 11 11 11-4.924927 11-11z"/><path d="m1781 326c0-6.075073-4.924927-11-11-11s-11 4.924927-11 11 4.924927 11 11 11 11-4.924927 11-11z"/><path d="m1781 393c0-6.075073-4.924927-11-11-11s-11 4.924927-11 11 4.924927 11 11 11 11-4.924927 11-11z"/><path d="m1851 326c0-6.075073-4.924927-11-11-11s-11 4.924927-11 11 4.924927 11 11 11 11-4.924927 11-11z"/><path d="m1851 393c0-6.075073-4.924927-11-11-11s-11 4.924927-11 11 4.924927 11 11 11 11-4.924927 11-11z"/><path d="m1920 326c0-6.075073-4.924927-11-11-11s-11 4.924927-11 11 4.924927 11 11 11 11-4.924927 11-11z"/><path d="m1920 393c0-6.075073-4.924927-11-11-11s-11 4.924927-11 11 4.924927 11 11 11 11-4.924927 11-11z"/></g><path d="m1800 1142s32.79248 6 82 6c48 0 77-6 77-6v-48h-159z"/><path d="m728 694h205v-199h-205z" fill="#929292"/><path d="m884 592.5c0-30.099487-23.728882-54.5-53-54.5s-53 24.400513-53 54.5c0 30.099548 23.728882 54.5 53 54.5s53-24.400452 53-54.5z"/><path d="m1782 1094h194v-365h-194z"/><path d="m1596 699h131v-132h-131z"/><path d="m1161 724h45v-83h-45z"/><path d="m1206 661h14v-11h-14z" fill="#d5d5d5"/><path d="m1147 687h14v-11h-14z" fill="#d5d5d5"/><path d="m1206 712h14v-11h-14z" fill="#d5d5d5"/><path d="m1976 763-135.03479 39.915955v45.011596l135.03479-36.51886z" fill="#f7ba00"/><path d="m1976 830.942017-135.03479 39.915954v45.011597l135.03479-36.51886z" fill="#f7ba00"/><path d="m1976 902.281189-135.03479 39.915894v45.011657l135.03479-36.518921z" fill="#f7ba00"/><path d="m1976 971.072449-135.03479 39.915954v45.011597l135.03479-36.518799z" fill="#f7ba00"/><path d="m564 1056h327v-193h-327z" fill="#fff"/><path d="m933 1056h330v-193h-330z" fill="#fff"/><path d="m1313 1056h225v-164h-225z" fill="#fff"/><path d="m396 536h122v-81h-122z" fill="#929292"/><path d="m2007 536h123v-81h-123z" fill="#929292"/><path d="m396 810h122v-203h-122z" fill="#929292"/><path d="m1154 607h52v-55h-52z" fill="#929292"/><path d="m1239 607h53v-55h-53z" fill="#929292"/><path d="m1322 607h53v-55h-53z" fill="#929292"/><path d="m504 489c0-3.865967-3.134003-7-7-7s-7 3.134033-7 7 3.134003 7 7 7 7-3.134033 7-7z"/><path d="m2044 488.5c0-3.589844-3.134033-6.5-7-6.5s-7 2.910156-7 6.5 3.134033 6.5 7 6.5 7-2.910156 7-6.5z"/><path d="m2077 733h34v-15h-34z" fill="#ff9400"/><path d="m2030 810h75v-47h-75z"/><path d="m2037 763h17v-23h-17z" fill="#d5d5d5"/><path d="m2030 897.735291h47v-22.735291h-47z" fill="#ff9400"/><path d="m2023 898h21v-23h-21z" fill="#d5d5d5"/><path d="m2069 898h21v-23h-21z" fill="#d5d5d5"/><path d="m1657 863h32v-35h-32z" fill="#ff9400"/><path d="m1642 863h15v-35h-15z" fill="#d5d5d5"/><path d="m1688 863h14v-35h-14z" fill="#d5d5d5"/><path d="m1844.334595 576.572266-21.503662.033691.036865 23.519775 21.503662-.033691z" fill="#ff9400"/><path d="m1854.414551 576.556519-10.079956.015747.036865 23.519775 10.079834-.015869z" fill="#d5d5d5"/><path d="m1823.50293 576.604858-9.407959.014771.036865 23.519775 9.407959-.01477z" fill="#d5d5d5"/><path d="m1953.334595 463.572266-21.503662.033691.036865 23.519775 21.503662-.033691z" fill="#ff9400"/><path d="m1963.414551 463.556519-10.079956.015747.036865 23.519775 10.079834-.015869z" fill="#d5d5d5"/><path d="m1932.50293 463.604858-9.407959.014771.036865 23.519775 9.407959-.01477z" fill="#d5d5d5"/><path d="m1826.048828 657.409424-.033691-21.503662-23.519776.036865.033692 21.503662z" fill="#ff9400"/><path d="m1826.064575 667.48938-.015747-10.079956-23.519775.036865.015869 10.079834z" fill="#d5d5d5"/><path d="m1826.016235 636.577759-.01477-9.407959-23.519776.036865.014771 9.407959z" fill="#d5d5d5"/><path d="m1598.501221 884.254944-.045777-29.216004-31.9552.050049.045777 29.216004z" fill="#ff9400"/><path d="m1598.522583 897.950073-.021362-13.695129-31.9552.050049.021606 13.695007z" fill="#d5d5d5"/><path d="m1598.456909 855.951965-.020019-12.782165-31.955201.05011.02002 12.782104z" fill="#d5d5d5"/><path d="m1579.661499 781.76178-.037476-23.887573-26.127197.040954.037476 23.887573z" fill="#ff9400"/><path d="m1579.678955 792.959167-.017456-11.197387-26.127197.040954.017578 11.197266z" fill="#d5d5d5"/><path d="m1579.625244 758.620728-.016357-10.450928-26.127198.040954.016358 10.450928z" fill="#d5d5d5"/><path d="m1329.661499 692.76178-.037476-23.887573-26.127197.040954.037476 23.887573z" fill="#ff9400"/><path d="m1329.678955 703.959167-.017456-11.197387-26.127197.040954.017578 11.197266z" fill="#d5d5d5"/><path d="m1329.625244 669.620728-.016357-10.450928-26.127198.040954.016358 10.450928z" fill="#d5d5d5"/><path d="m1280.661499 692.76178-.037476-23.887573-26.127197.040954.037476 23.887573z" fill="#ff9400"/><path d="m1280.678955 703.959167-.017456-11.197387-26.127197.040954.017578 11.197266z" fill="#d5d5d5"/><path d="m1280.625244 669.620728-.016357-10.450928-26.127198.040954.016358 10.450928z" fill="#d5d5d5"/><path d="m1112.661499 692.76178-.037476-23.887573-26.127197.040954.037476 23.887573z" fill="#ff9400"/><path d="m1112.678955 703.959167-.017456-11.197387-26.127197.040954.017578 11.197266z" fill="#d5d5d5"/><path d="m1112.625244 669.620728-.016357-10.450928-26.127198.040954.016358 10.450928z" fill="#d5d5d5"/><path d="m1072.661499 692.76178-.037476-23.887573-26.127197.040954.037476 23.887573z" fill="#ff9400"/><path d="m1072.678955 703.959167-.017456-11.197387-26.127197.040954.017578 11.197266z" fill="#d5d5d5"/><path d="m1072.625244 669.620728-.016357-10.450928-26.127198.040954.016358 10.450928z" fill="#d5d5d5"/><path d="m1108.661499 601.76178-.037476-23.887573-26.127197.040954.037476 23.887573z" fill="#ff9400"/><path d="m1108.678955 612.959167-.017456-11.197387-26.127197.040954.017578 11.197266z" fill="#d5d5d5"/><path d="m1108.625244 578.620728-.016357-10.450928-26.127198.040954.016358 10.450928z" fill="#d5d5d5"/><path d="m675.661438 514.76178-.037415-23.887573-26.127136.040954.037415 23.887573z" fill="#ff9400"/><path d="m675.678955 525.959167-.017517-11.197387-26.127136.040954.017639 11.197266z" fill="#d5d5d5"/><path d="m675.625244 491.620728-.016418-10.450928-26.127137.040954.016419 10.450928z" fill="#d5d5d5"/><path d="m586.403442 603.666016 23.887574-.037415-.040955-26.127136-23.887573.037414z" fill="#ff9400"/><path d="m575.206055 603.683533 11.197387-.017517-.040954-26.127137-11.197266.01764z" fill="#d5d5d5"/><path d="m609.544495 603.629822 10.450927-.016419-.040954-26.127136-10.450928.016419z" fill="#d5d5d5"/><path d="m1621.661499 781.76178-.037476-23.887573-26.127197.040954.037476 23.887573z" fill="#ff9400"/><path d="m1621.678955 792.959167-.017456-11.197387-26.127197.040954.017578 11.197266z" fill="#d5d5d5"/><path d="m1621.625244 758.620728-.016357-10.450928-26.127198.040954.016358 10.450928z" fill="#d5d5d5"/><path d="m1621.661499 781.76178-.037476-23.887573-26.127197.040954.037476 23.887573z" fill="#646464"/><path d="m1621.678955 792.959167-.017456-11.197387-26.127197.040954.017578 11.197266z" fill="#d5d5d5"/><path d="m1621.625244 758.620728-.016357-10.450928-26.127198.040954.016358 10.450928z" fill="#d5d5d5"/><path d="m1711.661499 931.76178-.037476-23.887573-26.127197.040954.037476 23.887573z" fill="#646464"/><path d="m1711.678955 942.959167-.017456-11.197387-26.127197.040954.017578 11.197266z" fill="#d5d5d5"/><path d="m1711.625244 908.620728-.016357-10.450928-26.127198.040954.016358 10.450928z" fill="#d5d5d5"/><path d="m1934.401001 599.66394 23.887573-.032959-.036133-26.127136-23.887451.032959z" fill="#646464"/><path d="m1923.203613 599.679321 11.197388-.015381-.036011-26.127136-11.197265.015503z" fill="#d5d5d5"/><path d="m1957.542114 599.63208 10.450928-.014465-.036133-26.127136-10.450928.014404z" fill="#d5d5d5"/><path d="m579.401001 494.66394 23.887573-.032959-.036133-26.127136-23.887451.032959z" fill="#646464"/><path d="m568.203613 494.679321 11.197388-.015381-.036011-26.127136-11.197265.015503z" fill="#d5d5d5"/><path d="m602.542114 494.63208 10.450928-.014465-.036133-26.127136-10.450928.014404z" fill="#d5d5d5"/><path d="m1659.401001 1006.66394 23.887573-.032959-.036133-26.127136-23.887451.032959z" fill="#646464"/><path d="m1648.203613 1006.679321 11.197388-.015381-.036011-26.127136-11.197265.015503z" fill="#d5d5d5"/><path d="m1682.542114 1006.63208 10.450928-.014465-.036133-26.127136-10.450928.014404z" fill="#d5d5d5"/><path d="m1494.401001 689.66394 23.887573-.032959-.036133-26.127136-23.887451.032959z" fill="#646464"/><path d="m1483.203613 689.679321 11.197388-.015381-.036011-26.127136-11.197265.015503z" fill="#d5d5d5"/><path d="m1517.542114 689.63208 10.450928-.014465-.036133-26.127136-10.450928.014404z" fill="#d5d5d5"/><path d="m1494.401001 620.66394 23.887573-.032959-.036133-26.127136-23.887451.032959z" fill="#646464"/><path d="m1483.203613 620.679321 11.197388-.015381-.036011-26.127136-11.197265.015503z" fill="#d5d5d5"/><path d="m1517.542114 620.63208 10.450928-.014465-.036133-26.127136-10.450928.014404z" fill="#d5d5d5"/><path d="m2071 733h13.695557v-15h-13.695557z" fill="#d5d5d5"/><path d="m1802 536h39v-54h-39z" fill="#d5d5d5"/><path d="m2100 733h13.695557v-15h-13.695557z" fill="#d5d5d5"/><path d="m2080 763h18v-23h-18z" fill="#d5d5d5"/></g><path d="m2199 793.5c0-103.001099-53.72583-186.5-120-186.5s-120 83.498901-120 186.5 53.72583 186.5 120 186.5 120-83.498901 120-186.5z" fill="none" stroke="#ff00cb" stroke-width="33.32655"/><path d="m2429.121094 765.537292c-2.721924-3.255554-6.61792-4.8833-11.687989-4.8833-6.938232 0-11.661132 2.588379-14.169677 7.765258-1.440918 2.988709-2.294678 7.738526-2.561768 14.249695h-22.175049c.373535-9.873413 2.161621-17.85205 5.36377-23.936218 6.083984-11.581299 16.891357-17.371826 32.421875-17.371826 12.275146 0 22.041504 3.402283 29.299805 10.20697 7.258544 6.804627 10.887451 15.810669 10.887451 27.018311 0 8.592529-2.561768 16.224243-7.685059 22.895507-3.362305 4.429688-8.88623 9.366272-16.571289 14.810059l-9.126221 6.484375c-5.710693 4.056091-9.619873 6.991394-11.728027 8.805969s-3.882568 3.922669-5.323486 6.32428h50.674316v20.093628h-79.493896c.213379-8.325684 2.00122-15.930786 5.363525-22.815491 3.255615-7.738586 10.940674-15.930725 23.055664-24.57666 10.513916-7.525146 17.318604-12.915344 20.413818-16.170959 4.75-5.07013 7.125-10.620484 7.125-16.651245 0-4.910035-1.361084-8.992737-4.082763-12.248353zm-162.590332-25.537292h26.33789l25.617432 89.58075 25.857422-89.58075h25.617432l-40.267334 118h-23.295899z" fill="#ff00cb" fill-rule="evenodd"/></svg>