<svg height="160" viewBox="0 0 160 160" width="160" xmlns="http://www.w3.org/2000/svg"><path d="m85.75 23.755005c-.807777-.002014-1.753098.325027-2.668404 1.085495l-35.637992 29.624c-1.589707 1.320702-2.273301 1.537697-4.477505 1.537697h-22.930001c-3.144496 0-5.653396 2.508904-5.653396 5.653405v36.679c0 3.144501 2.5089 5.653397 5.653396 5.653397h22.930001c2.204204 0 2.887798.217079 4.477505 1.537704l35.638999 29.624001c2.440796 2.027801 5.0654 1.050095 5.0654-1.356812v-107.59999c0-1.504303-1.050705-2.439103-2.397004-2.442307zm45.815002 10.763992-8.4122 8.412201c14.466003 22.617005 14.479995 51.652001 0 74.263001l8.367004 8.321807c18.772995-27.381004 18.80899-63.612007.04509-90.997009zm-20.307006 20.262001-8.276596 8.3218c7.530807 10.088006 7.530807 23.832001 0 33.919999l8.231308 8.2313c11.924987-14.662994 11.957992-35.803993.045089-50.473999z" fill="#fff"/></svg>