<svg height="64" viewBox="0 0 64 64" width="64" xmlns="http://www.w3.org/2000/svg" xmlns:xlink="http://www.w3.org/1999/xlink"><linearGradient id="a" gradientUnits="userSpaceOnUse" x1="31.069867" x2="31.069867" y1="26.062668" y2="16.847065"><stop offset="0" stop-color="#646464"/><stop offset="1" stop-color="#fff"/></linearGradient><path d="m12 26h38c1.618824 0 1-1.726948 1 0l-.599998 27.057076c0 1.726951-1.312314 3.126926-2.931138 3.126926h-32.804394c-1.618822 0-2.931136-1.399975-2.931136-3.126926l.266666-26.057076c0-1.726948-1.618822-1 0-1z" fill="#fff"/><path d="m11.693067 26.062668 6.733599-9.080933 25.060002-.13467 6.959999 9.031601-38.753333.184002z" style="fill-rule:evenodd;stroke:#d5d5d5;stroke-width:1.333333;stroke-linecap:round;stroke-linejoin:round;opacity:.498046;fill:url(#a)"/><g fill="#fff"><path d="m43.798664 16.818802 6.244003 9.229198 10.957333-10.048-9-7z"/><path d="m18.157333 16.953465-5.301467 8.959869-10.855866-10.913334 10-7z"/></g></svg>