<svg height="60" viewBox="0 0 60 60" width="60" xmlns="http://www.w3.org/2000/svg"><path d="m30.000931 4.690533c-13.977509 0-25.309999 11.325473-25.309999 25.293966-.000401 13.969496 11.33249 25.326029 25.309999 25.326029 13.977505 0 25.309997-11.356533 25.309997-25.326029 0-13.968493-11.332492-25.293966-25.309997-25.293966z" fill="none" stroke="#fff" stroke-linecap="round" stroke-linejoin="round" stroke-width="5"/><g fill="#fff" fill-rule="evenodd"><path d="m26.192801 21.407799-12.455 13.784 12.455 13.784001z" stroke="#fff" stroke-linecap="round" stroke-linejoin="round" stroke-width="3.125"/><path d="m27.486187 10c-.820269 0-1.608292.081448-2.405386.145229v4.798489c.819262-.083408 1.548838-.317932 2.405386-.317932 4.570942 0 8.673302 1.257023 11.488827 3.093014 2.816528 1.836963 4.275684 4.09 4.275684 6.41859 0 2.32761-1.459156 4.610083-4.275684 6.44705-2.815525 1.835985-6.917885 3.063578-11.488827 3.063578-.857555 0-1.586124-.235508-2.405386-.317936v4.799469c.797094.062801 1.585117.144249 2.405386.144249 5.431519 0 10.387405-1.40324 14.13102-3.844677 3.743618-2.441441 6.382793-6.095751 6.382793-10.291733 0-4.19598-2.639175-7.821831-6.382793-10.263275-3.743615-2.441437-8.699501-3.874115-14.13102-3.874115z"/></g></svg>