<svg viewBox="0 0 275.97 263.45" xmlns="http://www.w3.org/2000/svg" xmlns:xlink="http://www.w3.org/1999/xlink"><filter id="a" color-interpolation-filters="sRGB" height="1.7109" width="1.2089" x="-.10443" y="-.35543"><feGaussianBlur stdDeviation="17.15866"/></filter><linearGradient id="b" gradientTransform="matrix(1 0 0 .48859 -17.156 400.03)" gradientUnits="userSpaceOnUse" x1="1271.4" x2="1280" y1="623.79" y2="1120.9"><stop offset="0" stop-color="#999"/><stop offset=".45399" stop-color="#fff"/><stop offset=".58583" stop-color="#999"/><stop offset="1" stop-color="#b3b3b3"/></linearGradient><g stroke="#b3b3b3" stroke-width="4.2326" transform="matrix(.22265 0 0 .22265 -141.4677288 38.295)"><path d="m1089.3 852.09c-11.522 21.931-30.558 60.877-31.344 80.094-1.9908 48.705 391.22 47.123 394.28-1.4063 1.1343-17.991-26.986-56.767-44.188-78.688h-318.75z" fill="#1a1a1a" filter="url(#a)" opacity=".72146"/><path d="m1094.3 614.65 297.14 5.7143v198.92s58.772 68.816 57.143 94.646c-3.0598 48.529-396.28 50.101-394.29 1.3959 1.1287-27.613 40-96.042 40-96.042z" fill="url(#b)"/></g><g transform="matrix(.22265 0 0 .22265 -134.033 38.295)"><rect height="808.57" ry="40" stroke="#e6e6e6" stroke-width="3" width="1234.3" x="605.71" y="-170.49"/><path d="m602 197.5v397.16c0 22.16 17.84 40 40 40h1154.3c22.16 0 40-17.84 40-40v-397.16z" fill="#dbdee3" opacity=".28767"/><path d="m668.88-102.42h1108v658.13h-1108z" fill="#5f8dd3" stroke="#fff" stroke-width=".85478"/><path d="m1798-170.49s40 17.84 40 40v728.57c0 22.16-17.84 40-40 40h-1154.3c-22.16 0-40-17.84-40-40 819.2-195.25 1194.3-768.57 1194.3-768.57z" fill="#e6e6e6" opacity=".11416"/></g></svg>