<svg height="1500" viewBox="0 0 2000 1500" width="2000" xmlns="http://www.w3.org/2000/svg" xmlns:xlink="http://www.w3.org/1999/xlink"><radialGradient id="a" cx="1573.089148" cy="1087.98978" gradientUnits="userSpaceOnUse" r="113.155011"><stop offset=".00001" stop-color="#ff7020"/><stop offset=".27586" stop-color="#df0000"/><stop offset=".34561" stop-color="#b10000"/><stop offset=".52103" stop-color="#5b0000"/><stop offset=".70899" stop-color="#1e0000"/><stop offset="1"/></radialGradient><linearGradient id="b" gradientUnits="userSpaceOnUse" x1="1568.280443" x2="1568.280443" y1="1080.271503" y2="977.712235"><stop offset=".00001" stop-color="#e6e6e6"/><stop offset=".5918" stop-color="#e7e7e7"/><stop offset=".8047" stop-color="#eee"/><stop offset=".9562" stop-color="#fafafa"/><stop offset="1" stop-color="#fff"/></linearGradient><linearGradient id="c" gradientUnits="userSpaceOnUse" x1="1571.93482" x2="1571.93482" y1="1209.586286" y2="969.549927"><stop offset=".00001" stop-color="#efefef"/><stop offset=".457" stop-color="#dadadb"/><stop offset="1" stop-color="#c5c5c7"/></linearGradient><linearGradient id="d" gradientUnits="userSpaceOnUse" x1="1572.779538" x2="1572.779538" y1="1214.2303" y2="963.147918"><stop offset=".00001" stop-color="#59595b"/><stop offset=".2701" stop-color="#5c5c5e"/><stop offset=".4955" stop-color="#676769"/><stop offset=".7047" stop-color="#78787a"/><stop offset=".9031" stop-color="#909092"/><stop offset="1" stop-color="#9f9fa1"/></linearGradient><linearGradient id="e"><stop offset=".00001" stop-color="#fff"/><stop offset="1" stop-color="#fff" stop-opacity="0"/></linearGradient><linearGradient id="f" gradientUnits="userSpaceOnUse" x1="1626.150882" x2="1661.403763" xlink:href="#e" y1="1003.827525" y2="1042.105629"/><linearGradient id="g" gradientUnits="userSpaceOnUse" x1="1508.700444" x2="1482.639466" xlink:href="#e" y1="1002.324439" y2="1047.079978"/><linearGradient id="h"><stop offset=".00001" stop-color="#eee"/><stop offset="1" stop-color="#eee" stop-opacity="0"/></linearGradient><linearGradient id="i" gradientUnits="userSpaceOnUse" x1="1511.6712" x2="1499.557737" xlink:href="#h" y1="1041.865577" y2="1057.844875"/><linearGradient id="j" gradientUnits="userSpaceOnUse" x1="1514.828874" x2="1504.260927" xlink:href="#h" y1="1033.237213" y2="1055.915412"/><linearGradient id="k" gradientUnits="userSpaceOnUse" x1="1635.013069" x2="1645.581015" xlink:href="#h" y1="1033.237213" y2="1055.915412"/><path d="m977.984436 791.499023.015564 51.500977 873.000122 50v487h-1681.315079v-495.433838l-58.685043 52.162354 2.992729-145.86792 50.725212-49.702149h.638413v-278.126953h91.229706v203.931763l286.846557-249.42981z" fill="#fff" fill-opacity=".20387"/><path d="m1705.61499 1087c0 73.45459-59.011474 133-131.807495 133-72.79602 0-131.807495-59.54541-131.807495-133 0-73.454712 59.011475-133 131.807495-133 72.796021 0 131.807495 59.545288 131.807495 133z"/><path d="m1686.240479 1087.989746c0 62.49353-50.661622 113.155029-113.155152 113.155029-62.493408 0-113.154907-50.661499-113.154907-113.155029 0-62.493408 50.661499-113.154968 113.154907-113.154968 62.49353 0 113.155152 50.66156 113.155152 113.154968z" fill="url(#a)"/><path d="m1704.054565 1088.005981c0 72.322754-58.62976 130.952637-130.952514 130.952637s-130.952637-58.629883-130.952637-130.952637c0-72.322753 58.629883-130.952514 130.952637-130.952514s130.952514 58.629761 130.952514 130.952514z" fill="none" stroke="#000" stroke-opacity=".69792" stroke-width="12.424533"/><g opacity=".022221" stroke-width=".045862"><path d="m1652.268921 1022.87146c-.057007-.373047-.111084-.740479-.162354-1.105042-1.067993-8.014709-5.286132-15.371398-10.985229-21.004943-.469849-.464295-.919922-.942749-1.386963-1.401368-7.106079-6.673095-15.861328-11.349731-24.949707-14.721923-12.152832-4.454468-25.086304-6.542115-37.996826-6.889588-13.326416-.299072-26.715454 1.241821-39.566162 4.81897-13.710938 3.833618-27.040161 9.982727-37.749024 19.506897-2.415283 2.181641-4.628296 4.576965-6.667602 7.111755-1.734375 2.087708-3.15564 4.414612-4.474366 6.781433-2.264282 4.13263-3.580078 8.729493-4.124145 13.400391.017212 1.053833.022827 2.107544.028564 3.164307-.145263 8.194091 3.611329 15.978027 8.763672 22.166992 1.834229 1.990845 3.671265 3.978882 5.776001 5.693481 3.130127 2.799683 6.684571 5.06958 10.307373 7.171509 4.440186 2.685791 9.296265 4.539917 14.115235 6.411133 2.853882.865845 5.687866 1.788696 8.581421 2.5177 2.529174.714966 5.146606 1.048218 7.692871 1.70044 17.447632 3.098754 35.490478 2.711425 52.807129-1.025391 2.711425-.675049 5.476928-1.15625 8.122802-2.079102 12.833741-3.648437 25.214478-9.467163 35.464966-18.099853 2.005005-1.643311 3.625611-3.6969 5.639282-5.328858.398682-.538208.803101-1.07373 1.230347-1.592041 3.560181-4.201049 6.385498-9.062744 8.088623-14.309082 1.38147-4.144043 1.711792-8.550171 1.444092-12.887817z" fill="url(#b)" stroke="#e6e6e5"/><path d="m1691.259766 1076.501709c-.410035-4.548462-1.244629-9.051392-2.235718-13.505859-1.338623-5.736084-3.05896-11.389649-5.232056-16.866578-2.281372-6.015258-5.180664-11.782714-8.399048-17.348022-2.702881-4.528442-5.619384-8.931641-8.874878-13.081299-2.839477-3.705444-5.935424-7.208679-9.213623-10.526733-3.192749-3.226929-6.553589-6.282959-10.090942-9.125366-15.194702-12.295411-33.491089-20.62616-52.658936-24.345826-18.854736-3.617187-38.557983-2.677246-56.951294 2.8396-17.41333 5.197815-33.636352 14.402954-46.954223 26.775269-3.158569 2.868042-6.114868 5.955322-8.95166 9.139587-6.217408 7.1203-11.634644 14.952698-16.00647 23.337585-.83728 1.603394-1.62915 3.229859-2.420898 4.856079-2.272828 4.83606-4.226685 9.825928-5.798829 14.93274-2.420898 7.635864-4.055664 15.516479-4.921508 23.479858-.008545.091187-.025635.27063-.03418.361817-.669312 6.436767-.831665 12.930419-.421509 19.392822.05127 1.273193.162354 2.543457.28186 3.816528.489869 5.405762 1.367188 10.777344 2.611817 16.063477.404419 1.714477.8573 3.417724 1.304443 5.123779 1.99646 7.012085 4.602539 13.850464 7.818115 20.392578.666504 1.349976 1.355713 2.691528 2.073365 4.018677 2.808349 5.266235 6.023803 10.31311 9.581177 15.106445 5.701904 7.652954 12.30957 14.633789 19.663452 20.720215 3.645507 3.016113 7.470581 5.821533 11.458007 8.373535 18.156861 11.671509 39.494996 18.324707 61.063843 19.07959 22.616944.808838 45.410523-5.02124 64.877564-16.553345 4.893066-2.888061 9.581054-6.123535 14.018432-9.672241 1.908326-1.526611 3.765259-3.118774 5.588013-4.747803 7.855225-7.145996 14.796021-15.297363 20.515137-24.246215.657837-1.050904 1.318603-2.096192 1.96228-3.15564 4.588379-7.701416 8.356445-15.901123 11.104858-24.437012 2.566163-7.741211 4.260865-15.761474 5.234864-23.855957l.022827-.227783c.905762-8.672607 1.031006-17.45044-.014282-26.114502zm-40.434815-40.742432c-1.703125 5.246216-4.528564 10.107911-8.088745 14.30896-.427124.518433-.831543 1.053833-1.230347 1.592163-2.013671 1.631958-3.634155 3.685425-5.639282 5.328858-10.250366 8.63269-22.631225 14.451416-35.464844 18.099853-2.645874.92273-5.411499 1.404053-8.122802 2.079102-17.316651 3.736694-35.359619 4.124023-52.807129 1.025268-2.546265-.652221-5.163697-.985473-7.692871-1.700317-2.893677-.729126-5.727539-1.651855-8.581421-2.5177-4.81897-1.871216-9.675049-3.725342-14.115235-6.411133-3.622802-2.101929-7.177368-4.371948-10.307495-7.171631-2.104736-1.714599-3.941772-3.702514-5.775879-5.693481-5.152343-6.188965-8.908935-13.972901-8.763672-22.166992-.005737-1.056641-.011474-2.110352-.028564-3.164185.543945-4.671021 1.859863-9.267822 4.124146-13.400452 1.318603-2.366882 2.739868-4.693725 4.474365-6.781433 2.039306-2.53479 4.252319-4.930053 6.66748-7.111816 10.708985-9.524048 24.038208-15.673218 37.749146-19.506775 12.850708-3.57721 26.239746-5.118103 39.566162-4.819031 12.910522.347473 25.843872 2.43512 37.996826 6.889588 9.088379 3.372253 17.843506 8.048767 24.949585 14.721984.467163.458558.917114.937012 1.387085 1.401307 5.699097 5.633606 9.917114 12.990295 10.985229 21.004943.05127.364563.105347.731934.162354 1.105103.267578 4.337646-.062744 8.743774-1.444092 12.887817z" fill="url(#c)" stroke="#efefef"/></g><path d="m1696.102173 1065.307983c-1.752319-9.517089-4.729248-18.797485-8.646362-27.641479-2.529664-5.708496-5.506592-11.212891-8.854859-16.480591-6.58789-10.339966-14.691284-19.713745-23.986938-27.706482-4.473023-3.856323-9.226075-7.384765-14.200684-10.56366-15.644653-10.009948-33.549683-16.428466-51.971435-18.762695-22.814454-2.950867-46.408448.642761-67.346802 10.157593-14.704468 6.637878-28.101685 16.13977-39.240845 27.808594l.013062.030395c-7.515137 7.816895-13.950928 16.667359-19.157837 26.175781-3.626221 6.635621-6.659546 13.592652-9.030762 20.771119-.015137.089111-.045532.264892-.058594.351806-.425537.955323-.67749 1.975952-.992309 2.970337-2.81836 9.386841-4.609742 19.101441-5.150391 28.889893-.395264 6.310058-.323608 12.661255.316895 18.953857.414794 4.887695 1.144409 9.760254 2.221313 14.548096 1.25293 6.231811 3.139771 12.326782 5.332886 18.291504l.04126.002197c4.07788 10.848023 9.699462 21.116455 16.602172 30.422852 7.625855 10.29663 16.836792 19.424926 27.226685 26.924804 15.20166 11.013184 32.928711 18.473877 51.398193 21.783081 21.153443 3.851929 43.288208 2.101929 63.570923-5.0354 16.261231-5.680298 31.328247-14.741333 43.965576-26.447144 8.038452-7.443359 15.101807-15.942016 20.918824-25.226806 3.89331-6.17749 7.217651-12.708985 9.964477-19.472656 4.666138-11.540772 7.699585-23.774292 8.746094-36.181397.089111-.571045.143432-1.14209.182495-1.715332.82727-10.967529.238769-22.050171-1.863037-32.848267zm-180.643921 123.52417c1.358154.016236 2.716309.011841 4.074463.019532-1.358154-.007691-2.716309-.003296-4.074463-.019532zm148.310181-90.167846-.017334.173706c-.742676 6.17102-2.034546 12.285522-3.990967 18.187378-2.095337 6.507568-4.968018 12.758789-8.466065 18.630127-.490844.807861-.994629 1.604736-1.496093 2.405883-4.360108 6.822388-9.651734 13.036866-15.640381 18.484742-1.389649 1.242065-2.805298 2.45581-4.260132 3.619751-3.382935 2.705444-6.957031 5.172119-10.687378 7.373901-14.841309 8.79187-32.218628 13.236572-49.461426 12.619873-16.443725-.575317-32.711548-5.647705-46.553955-14.545898-3.039795-1.945557-5.955932-4.084229-8.735351-6.38379-5.606324-4.640136-10.643921-9.962158-14.990967-15.79663-2.712036-3.654297-5.163452-7.501954-7.304444-11.516846-.547241-1.011841-1.072631-2.034546-1.58081-3.063721-2.451416-4.987671-4.438233-10.201172-5.960327-15.546997-.340943-1.300659-.686157-2.599121-.994507-3.90625-.948853-4.030029-1.617676-8.125244-1.991089-12.24646-.091186-.970581-.175903-1.938965-.214966-2.909668-.312744-4.926758-.188965-9.877441.321289-14.784668.006592-.06958.019532-.206299.026123-.275879.660035-6.071045 1.906372-12.079223 3.752076-17.900634 1.198608-3.893311 2.68811-7.697388 4.420898-11.3844.603638-1.239868 1.207275-2.479736 1.845581-3.702148 3.33313-6.392456 7.463013-12.36377 12.203125-17.792115 2.162598-2.427612 4.416504-4.781372 6.824585-6.967895 10.153198-9.432373 22.52124-16.450195 35.796997-20.412964 14.022583-4.205933 29.044067-4.922485 43.418457-2.164795 14.613159 2.835755 28.562012 9.187012 40.14624 18.560791 2.696778 2.166992 5.258911 4.496826 7.692993 6.957031 2.499268 2.529541 4.859498 5.200318 7.024415 8.025269 2.481811 3.163696 4.705322 6.52063 6.765869 9.973022 2.453735 4.24292 4.664062 8.639893 6.40332 13.225708 1.65686 4.17566 2.968262 8.485718 3.988892 12.858887.755615 3.395996 1.391845 6.828858 1.704467 10.296509.796875 6.605225.701416 13.297363.010865 19.90918z" fill="url(#d)" opacity=".237286" stroke="#59595b" stroke-width=".045862"/><g fill="#00aeef"><path d="m1447.490723 1091.705933-.136109 4.266967 32.615723.838257.098267-3.601928z"/><path d="m1480.363159 1085.362671-.128296 3.481323-32.5177-2.597412.203369-4.372192z"/><path d="m1481.352173 1077.78125-.498657 3.345337-32.283326-4.765015.665039-4.440185z"/><path d="m1482.922852 1070.312134-.694458 3.322754-31.861084-7.166016.929565-4.365234z"/><path d="m1485.036987 1063.115845-.935669 3.201538-31.234008-9.620606 1.291381-4.342041z"/><path d="m1487.71106 1056.281494-1.23108 3.012818-30.343261-12.278321 1.737671-4.252319z"/><path d="m1490.927856 1049.681519-1.623901 2.861938-29.14917-15.012695 2.197754-3.9646z"/><path d="m1494.628052 1043.284912c-.098145-.060303-1.706665 2.817139-1.706665 2.817139l-27.805176-17.474854s2.250244-3.93457 2.348511-3.851074z"/><path d="m1498.985596 1037.228516-1.926392 2.696411-26.347412-19.710327 2.620605-3.639954z"/><path d="m1503.772949 1031.58728-2.235595 2.394165-24.723511-21.794433 3.028198-3.315125z"/><path d="m1508.810303 1026.195923c-.098267-.113648-2.258179 2.370972-2.258179 2.370972l-22.889282-23.818116s3.028198-3.329834 3.126343-3.216919z"/><path d="m1514.511719 1021.566223-2.530274 2.077088-20.880249-25.683228 3.481201-2.8396z"/><path d="m1520.416504 1017.239746s-2.824097 1.623108-2.763672 1.721314l-18.728394-27.366761c-.06726-.098144 3.753541-2.409607 3.753541-2.409607z"/><path d="m1526.677002 1013.395691-2.771362 1.722107-16.470337-28.855347 3.806152-2.310547z"/><path d="m1533.29248 1010.193481-3.020385 1.276734-14.137329-30.131226 4.070556-1.76001z"/><path d="m1540.051025 1007.286743-3.005737 1.30603-11.750122-31.180603 4.085327-1.714355z"/><path d="m1547.157593 1005.30011-3.171997.830505-9.356812-32.018799 4.259278-1.155273z"/><path d="m1554.30127 1003.427246c-.023194-.158569-3.179688.808106-3.179688.808106l-6.909424-32.676209s4.243897-1.177734 4.281738-1.019165z"/><path d="m1561.565552 1002.619141-3.22461.378051-4.356689-33.129211 4.402344-.521179z"/><path d="m1568.830688 1002.015198s-.808105-.044861-1.623901-.098267c-.808105.105957-1.60852.211975-1.60852.211975l-1.714356-33.386108s1.094971-.120606 2.197632-.234253c1.102783.037842 2.212402.083557 2.212402.083557z"/></g><path d="m1576.110352 1002.377808-3.239991-.143799.966553-33.416138 4.425537.211853z" fill="#ed1c24"/><path d="m1583.374634 1003.110168s-3.216919-.747741-3.223755-.573791l3.646728-33.219788c.030152-.180908 4.342774.725403 4.342774.725403z" fill="#ed1c24"/><path d="m1590.624268 1004.529968-3.223877-.619446 6.13916-32.826965 4.31958.853699z" fill="#ed1c24"/><path d="m1597.708374 1006.501038-3.081543-1.117371 8.586548-32.253174 4.183472 1.449951z" fill="#ed1c24"/><path d="m1604.655518 1008.932251-3.096192-1.071777 11.040283-31.45282 4.161133 1.487793z" fill="#ed1c24"/><path d="m1611.089355 1012.013794-2.763793-1.495483 13.578369-30.394959 4.047363 2.136536z" fill="#ed1c24"/><path d="m1617.365356 1015.260864-2.802368-1.4198 16.432373-28.877685 4.018067 2.189941z" fill="#ed1c24"/><path d="m1624.282471 1019.875061c.18872.068054-3.050659-2.091736-3.050659-2.091736l17.995239-27.873291 3.330566 2.272705z" fill="#ed1c24"/><path d="m1629.485107 1024.020752s-.716796-.596252-1.426635-1.200989c-.551392-.407532-1.094971-.822754-1.094971-.822754l20.525391-25.977905s.981323.785706 1.955566 1.563538c.770264.649658 1.540527 1.298339 1.540527 1.298339z" fill="#ed1c24"/><path d="m1635.625122 1029.59375s-2.137451-2.227905-2.371704-2.333008l21.318726-25.290405c-.128296-.242066 3.186767 3.072998 3.186767 3.065308z" fill="#ed1c24"/><path d="m1640.390015 1034.978271-2.039063-2.552734 23.440674-23.24353 2.89209 3.481323z" fill="#ed1c24"/><path d="m1645.049194 1040.649536-2.084106-2.51477 25.290405-21.106934 2.854248 3.519287z" fill="#ed1c24"/><path d="m1649.157593 1046.917847-1.812622-2.801758 26.884277-18.940064 2.423462 3.75354z" fill="#ed1c24"/><path d="m1652.872559 1053.374023-1.426758-2.968017 28.220459-16.771851 2.023681 4.062866z" fill="#ed1c24"/><path d="m1656.08252 1060.041992c.067993-.0448-1.41211-2.974731-1.41211-2.974731l29.504151-14.265747s2.00122 4.093139 1.910766 4.116333z" fill="#ed1c24"/><path d="m1658.695435 1067.155518-1.170777-3.163453 30.500855-11.849243 1.533447 4.206787z" fill="#ed1c24"/><path d="m1660.869873 1074.533447-.928711-3.307251 31.256348-9.582641 1.185425 4.258423z" fill="#ed1c24"/><path d="m1662.61438 1082.017456-.717529-3.337524 31.807739-7.393433.921753 4.342041z" fill="#ed1c24"/><path d="m1663.588745 1089.82605-.354858-3.511475 32.21521-5.278442.468628 4.311767z" fill="#ed1c24"/><path d="m1664.336548 1097.709717-.294678-3.495972 32.441773-3.489136.369751 4.349854z" fill="#ed1c24"/><g fill-rule="evenodd" opacity=".13508480158"><path d="m1570.276733 982.079712c-13.227295-.540222-33.863769 1.725464-47.555908 10.365723 1.027832 4.337158 2.243897 8.050659 5.535034 14.454406 12.950928-5.717834 24.765503-8.577758 39.845581-8.19403 15.080323.383056 29.093384 5.235229 40.185914 9.491577 3.830688-7.602417 4.629516-10.172608 6.106201-14.517273-15.771241-9.075745-29.938111-11.020508-44.118164-11.600037z" fill="#fff" fill-opacity=".70833"/><path d="m1659.671997 1038.135132c-2.313965-9.754761-15.525635-23.659424-21.436035-27.375855-2.618042 2.167664-3.513062 3.734742-6.787109 8.115479 6.915771 4.241211 18.053833 11.012695 22.820922 21.180664 3.975708-1.40332 2.953858-.679321 5.402222-1.919922z" fill="url(#f)"/><path d="m1480.157837 1050.593018c.491089-10.185669 13.744507-34.322144 18.567261-39.121949 2.779663 1.689453 3.869995 3.09729 7.625244 6.88208-5.664063 5.510315-18.154663 20.322266-20.839478 31.372193-3.902588-.677735-2.887695 1.66333-5.353027.867676z" fill="url(#g)"/><path d="m1568.358032 1013.098328c-6.990356.18695-18.317383 2.990539-23.327026 4.768982.890503 4.270019 1.313476 6.540893 1.635132 9.237793 5.137695-2.027832 15.138305-5.031556 22.202758-4.664917 7.285157.378051 15.816407 2.362915 20.200074 3.91809.880859-3.917358 1.796997-6.201049 3.014282-10.018921-9.746948-2.19757-16.745606-3.427368-23.725342-3.240722z" fill="url(#i)" opacity=".38421"/><path d="m1501.426147 1043.281982c3.531495-5.209961 5.952637-7.917724 11.465821-13.543823 2.19873 1.963989 7.92456 5.819946 11.120483 8.389771-5.700928 4.697265-8.510742 6.551513-11.601074 9.798706-3.318604-1.244385-8.937622-3.531739-10.98523-4.644287z" fill="url(#j)" opacity=".38421"/><path d="m1648.428833 1043.281982c-3.531372-5.209961-5.952637-7.917724-11.46582-13.543823-2.198609 1.963989-7.924561 5.819946-11.120362 8.389771 5.700806 4.697265 8.51062 6.551513 11.601075 9.798706 3.318603-1.244385 8.9375-3.531739 10.985107-4.644287z" fill="url(#k)" opacity=".38421"/></g><path d="m1592.359131 1083.022949c-2.898438 4.118653-5.326416 8.364502-7.284058 12.737427-1.550903 3.432251-2.949219 7.627197-4.194946 12.584961-1.24585 4.957764-1.868774 9.025513-1.868774 12.203613h-11.288208c.330444-9.915405 3.584716-20.224853 9.762817-30.928467 3.991577-6.635742 7.334839-11.262817 10.029785-13.881591h-27.572388l.152466-9.762818h39.051514v8.504395c-1.627197 1.601684-3.889893 4.449096-6.788208 8.54248zm-48.280518 37.526001h-11.135742v-38.13623h-13.004394v-7.398438c3.432251-.152466 5.834838-.381347 7.207641-.686401 2.186524-.483154 3.966187-1.449219 5.339111-2.898438.940674-.991455 1.652588-2.313476 2.135621-3.966064.279663-.991577.419555-1.728882.419555-2.211914h9.038208z" fill="#fff" fill-rule="evenodd"/><path d="m1620.742554 1103.553467c-.793213 0-1.479615.099121-2.059326.297363-1.022095.366211-1.792359 1.044922-2.311036 2.036499l-5.857788-.274536 2.333985-18.328247h18.28247v5.537353h-13.568847l-1.18982 7.25354c1.006714-.656005 1.792359-1.09082 2.356812-1.304321.945801-.35083 2.097412-.526245 3.455078-.526245 2.74585 0 5.140747.922852 7.184937 2.768677 2.044067 1.845825 3.066162 4.530517 3.066162 8.054321 0 3.066162-.984009 5.804321-2.951783 8.2146-1.967895 2.410156-4.911987 3.615234-8.832397 3.615234-3.157593 0-5.750855-.846558-7.779785-2.539795-2.028809-1.693359-3.157593-4.095825-3.386475-7.207764h6.498413c.2594 1.418702.755127 2.513184 1.487305 3.283448.7323.770385 1.800049 1.155639 3.203491 1.155639 1.616944 0 2.848755-.568237 3.695435-1.704712.846557-1.136474 1.269897-2.56665 1.269897-4.290283 0-1.693359-.396606-3.123413-1.189819-4.290405-.793335-1.16687-2.028931-1.750366-3.706909-1.750366zm-22.584229 9.656006h6.933106v6.818725h-6.933106z" fill="#fff" fill-rule="evenodd"/><path d="m346.687897 966.206116-11.735871-4.308106c-13.150421-4.827392-27.900543-1.758484-38.032379 7.913574-10.118286 9.657532-17.016998 22.196473-19.759277 35.912537-2.300659 11.506592-11.569977 20.336426-23.175369 22.074707-7.575715 1.13501-13.830689 6.511597-16.090409 13.830689-2.260269 7.319091-.126114 15.286254 5.490631 20.494629 5.616867 5.209594 13.722107 6.738281 20.850129 3.933105l64.179382 5.422974z" fill="#1a1a1a" fill-rule="evenodd"/><path d="m309.70813 973.524231 5.876068-9.266113c5.943817-9.373963 15.929932-12.986634 24.90387-9.009949 12.754028 5.652405 24.880249 13.352539 36.07901 22.910095 6.743042 5.753845 11.148895 14.953186 12.052429 25.166382.904114 10.213806-1.785187 20.413269-7.356201 27.904846-4.664582 6.273682-7.764588 14.140381-8.917115 22.621338-1.599609 11.782227-8.86737 21.041016-18.184112 23.16919-9.317261 2.127685-18.693024-3.33252-23.460358-13.660889-12.631744-27.369263-19.835663-58.190796-20.993591-89.8349z" fill="#1a1a1a" fill-rule="evenodd"/><path d="m314.553986 1039.946289 6.690673-21.36322-3.032226-48.771485 48.079681 4.407044c.873505 20.050842-4.221344 52.72522-7.164001 54.97998-2.94278 2.254761-10.333344.427613-17.975678-1.069458-2.339996-.458129-4.544037 1.477295-4.903167 4.305909-.527405 4.152465-.221741 8.398437.891479 12.379516 4.944214 5.270142 11.491913 8.778443 18.616547 11.654663l-10.742768 15.010987-24.810394-18.412354z" fill="#f93" fill-rule="evenodd"/><path d="m340.929688 1028.09314c-2.254212-.298706-4.332123 1.602905-4.68042 4.341919-.247315 1.950683-.311829 3.922729-.194428 5.877197-3.637146-2.775635-6.033386-7.096314-6.208038-11.997437l-.07425-2.078857c2.535462 1.751343 5.427369 2.918579 8.467743 3.417114z" fill="#e3780d" fill-rule="evenodd"/><path d="m495.098541 1022.903259h.001099c1.239349 1.084229 1.366028 2.985779.282806 4.225647l-28.562774 32.654175c-1.084839 1.240357-2.98584 1.367065-4.225739.282349v-.000611c-1.240875-1.083618-1.367554-2.98584-.282806-4.225097l28.561706-32.653687c1.085358-1.239868 2.986389-1.367676 4.225708-.282776z" fill="#1a1a1a" fill-rule="evenodd"/><path d="m445.155518 1117.199219 37.880676-38.32898c18.232818-18.447265 60.657959-45.907348 63.741516-46.350586 3.081421-.444946 17.468445 10.969361 18.042786 19.312134l2.680603 39.008545c1.897766 27.594849 4.996704 55.11499 9.290039 82.497925l-110.178925 18.737182z" fill="#e8821c" fill-rule="evenodd"/><path d="m445.155518 1117.199219 32.034545-32.411865 1.038422.7677c21.02478 15.540649 32.338135 40.985962 29.79184 67.006225l-54.784638-7.165039z" fill="#450045" fill-rule="evenodd"/><path d="m314.553986 1039.946289 18.470855 7.141602c11.381562 4.401611 23.313904 7.21875 35.463135 8.373413 9.317871.88562 16.618866 8.397339 17.238525 17.737671.386536 5.817627-.894744 11.625-3.693939 16.741088 1.085907 17.670044 5.805725 25.231934 24.791382 24.657593 4.310333-.130371 16.179413.181397 24.969299 2.746704 20.483246 5.978272 19.549042 16.802857 28.307862 27.021119l-32.015442 60.336914-71.172547-23.395264c-1.180847-.682617-1.340301-.825562-2.462799-1.724243l-23.64215-28.567627c-25.726471-31.086304-31.99408-73.914429-16.254181-111.06897z" fill="#606" fill-rule="evenodd"/><path d="m441.501923 1118.422729 41.766845-13.739624c30.297333-9.96643 89.794586-14.325317 93.973297-13.738403 4.182129.586304 8.794312 8.42627 13.190369 12.639527 36.356323 34.841186 73.932373 68.384765 112.65918 100.570068l-9.891663 6.219482-62.909363-13.113891c-34.934753-7.285279-59.461303-20.814087-68.984985-55.207032l-16.486755 12.210816c-29.72406 22.014038-64.148865 36.833496-100.56955 43.29541-15.396088 2.729736-30.971558-3.762695-39.868561-16.621094-8.896881-12.859497-9.482666-29.724121-1.499176-43.169922 7.983582-13.444702 23.071625-21.002929 38.620362-19.345337z" fill="#f93" fill-rule="evenodd"/><path d="m397.276764 1129.975098 28.148987-11.998535c21.609558-1.770997 53.1445-14.228638 68.735931-16.366089-3.71463 1.890136-5.992309 6.733276-3.418762 9.719116 19.046265 22.10144 22.258606 50.203979 12.292816 77.625244l-21.541351 7.130127c-27.438629 9.082519-57.444489 6.086304-82.54422-8.246094l-10.15857-47.761352z" fill="#606" fill-rule="evenodd"/><path d="m239.109879 1048.196289 2.789245-1.505127c14.918869-8.05188 32.675583-8.940063 48.324906-2.4198 15.648712 6.521485 27.51892 19.755493 32.305786 36.019043 12.493774 42.444214 44.005829 76.66919 85.274719 92.619873 41.269897 15.950562 87.609558 11.810059 125.398468-11.19873 15.544556-9.463623 35.641235-6.389893 47.644531 7.287475 12.005737 13.677247 12.44458 34.004395 1.042847 48.188233-11.403992 14.184082-31.348816 18.123657-47.286438 9.338135l-10.515015 3.874023c-89.951904 33.139649-190.654083-3.965698-237.599884-87.544067l-19.029266-.32312c-22.495102-.382325-42.159912-15.267212-48.634369-36.812867-6.474472-21.546264.597305-46.898803 20.28447-57.523071z" fill="#cc003a" fill-rule="evenodd"/><path d="m342.978668 1099.96167 6.502869 4.469726c17.341217 11.917725 36.260834 21.355713 56.213348 28.038697l4.88736-3.555176c21.193512-15.414673 39.276764-34.702759 53.294159-56.845093l-8.816162-6.012573-59.220948 36.800171-36.180542-24.779785c-9.515502 4.574585-13.956787 11.557251-16.680084 21.884033z" fill="#f93" fill-rule="evenodd"/><path d="m452.502441 1070.459351-.223297-4.4021c-.226471-4.470337.802582-8.915527 2.970642-12.831055 2.08609-3.767212 3.112366-8.02771 2.971619-12.331543-.035553-1.073364.606598-2.054443 1.602936-2.453613.998504-.399048 2.139099-.130493 2.853668.671021 3.453796 3.70874 1.782043 7.042968 1.198395 10.510742-.179657 1.067993 2.171844 2.171875 3.109741 2.711181l16.458466-11.559326 6.197631-7.084961 1.411835 4.234375c.680267 2.040283.25885 4.286866-1.113739 5.942871l-4.085937 7.873169c-1.614899 3.111328-3.92862 5.806763-6.761078 7.87439l-15.415619 12.769897z" fill="#f93" fill-rule="evenodd"/><path d="m368.600922 1012.631592.594085-7.576782c1.103882-14.08136-8.614135-26.719117-22.50711-29.266541l-2.520111 4.935913c-3.615876 7.082214-5.573151 14.893738-5.724884 22.845093-.239167 12.495788-8.933533 23.233704-21.10672 26.066223-12.173188 2.831787-24.714905-2.96521-30.444733-14.072754l29.26712-48.98529 39.368988 3.23413 11.666443 3.409058 7.795197 22.028748z" fill="#1a1a1a" fill-rule="evenodd"/><path d="m690.725769 1194.75061 56.656128 18.309204c3.816101 1.236084 7.895569 1.417359 11.807922.530762 2.581238-.58313 5.218262.727173 6.312317 3.138184 1.092957 2.410888.3396 5.258545-1.800537 6.815674-2.049621 1.48706-4.500854 2.319213-7.031982 2.386962l-5.175659 4.90918c-6.035035 5.726074-15.032288 7.00354-22.422425 3.18396-7.504638-3.876221-16.474792-3.627197-23.750183.663941-4.356689 2.568115-9.604492 3.155639-14.4198 1.607421-4.816406-1.546142-8.742981-5.075317-10.790283-9.700683-3.594665-8.123779-6.82666-16.402588-9.685242-24.8125z" fill="#f93" fill-rule="evenodd"/><path d="m321.332001 1183.45813-17.812897 137.273071h11.290466l39.889099-120.383301zm164.190521 0 17.813446 137.273071h-11.290466l-39.890198-120.383301z" fill="#cc003a" fill-rule="evenodd"/><path d="m1169.625 1087c0-73.453857-63.2677-133-141.3125-133-78.044739 0-141.3125 59.546143-141.3125 133s63.267761 133 141.3125 133c78.0448 0 141.3125-59.546143 141.3125-133z" fill="#041065" fill-rule="evenodd"/><path d="m1012.384033 992.791626c23.006958 38.395142-6.659851 56.010376-9.254028 91.65271 0 23.728271 13.161194 42.986572 29.378906 42.986572 16.217652 0 29.378784-19.258301 29.378784-42.986572.581177-47.012451-24.594604-71.010071-49.503662-91.65271z" fill="#fff"/><path d="m1130.861816 1123.694702c0-15.796264-44.048462-28.601684-98.385009-28.601684-54.336487 0-98.384949 12.80542-98.384949 28.601684 0 15.796265 44.048462 28.601685 98.384949 28.601685 54.336547 0 98.385009-12.80542 98.385009-28.601685z" fill="#fff" fill-rule="evenodd" opacity=".695792"/><path d="m858 1087-81 50v-37h-114v-26h114v-37z" fill="#fff" fill-rule="evenodd"/><path d="m1403 1087-81 50v-37h-114v-26h114v-37z" fill="#fff" fill-rule="evenodd"/></svg>