<svg height="128" viewBox="0 0 128 128" width="128" xmlns="http://www.w3.org/2000/svg"><path d="m100.251785 54.178253c-4.709144-4.735084-10.300155-8.501938-16.457275-11.087837-6.249603-2.643059-12.837723-3.960678-19.785195-3.960678-6.91362 0-13.483512 1.309814-19.707069 3.934639-6.144768 2.570412-11.728165 6.316559-16.436451 11.027946l-5.465795-5.468406c5.426109-5.417641 11.854059-9.728295 18.925871-12.691895 7.16621-3.036262 14.725624-4.549187 22.680843-4.549187 7.994278 0 15.584938 1.523339 22.769371 4.575226 7.083252 2.983628 13.519684 7.314385 18.951912 12.751785zm-11.067001 11.067002c-3.235519-3.261345-7.073715-5.863183-11.301361-7.660973-2.158707-.914345-4.40316-1.611321-6.700089-2.080589-2.360229-.486954-4.764076-.73127-7.174019-.729126-4.804378 0-9.361381.908798-13.681415 2.734207-4.260208 1.781601-8.127831 4.384788-11.382084 7.660965l-5.791294-5.788697c4.026165-4.012817 8.792793-7.206199 14.035561-9.403045 5.324268-2.246552 11.048267-3.391876 16.827045-3.366974 5.934517 0 11.572174 1.130142 16.899963 3.400825 5.263161 2.21344 10.041336 5.437226 14.064202 9.488984l-5.799111 5.747017zm-10.538384 10.530578c-3.875305-3.897293-9.143608-6.09008-14.639686-6.093368-2.718132-.013169-5.410847.523605-7.916165 1.578025-2.469467 1.036614-4.715358 2.54065-6.614158 4.429406l-5.254872-5.257477c2.604001-2.583168 5.60381-4.590851 9.004635-6.036072 3.411797-1.446938 7.082474-2.184082 10.788372-2.166534 3.827881 0 7.447434.729126 10.866486 2.192573 3.371239 1.43293 6.436058 3.499718 9.028076 6.08815l-5.260086 5.260079zm-14.538131 14.564163-9.335339-9.369186c.596314-.578095 1.242108-1.096283 1.937374-1.572815.697872-.468727 1.429596-.867142 2.202984-1.20826.773388-.330711 1.598854-.585899 2.465988-.755165.867131-.171859 1.744679-.257789 2.627438-.257789 1.801964 0 3.510193.341118 5.116859 1.028572 1.606667.690063 3.010224 1.640526 4.226288 2.86441z" fill="#fff"/><path d="m64.099007 10.190071-56.220995 14.560349c1.378981 36.04718 11.873119 80.021225 56.220995 92.881584 44.836036-12.492478 54.317749-57.217774 56.220993-92.881584z" fill="none" stroke="#fff" stroke-width="7.505399"/></svg>