<svg height="252" viewBox="0 0 300 252" width="300" xmlns="http://www.w3.org/2000/svg"><g fill-rule="evenodd"><path d="m149.575348 9.178879c25.163559 0 45.563064 20.425781 45.563064 45.622345 0 17.887665-10.283172 33.368042-25.25122 40.845581l24.253341 104.454971h-44.565185-44.565437l24.253593-104.454971c-14.968231-7.477539-25.251228-22.957916-25.251228-40.845581 0-25.196564 20.399269-45.622345 45.563072-45.622345z" fill="#9e6514"/><path d="m149.575348 9.178879c21.675476 0 39.814651 15.156402 44.427612 35.461777-3.060196 13.467636-12.069412 24.669357-24.115768 30.686813v20.319336l19.535675 84.136505h-39.847519-39.847534l19.53569-84.136505v-20.319336c-12.046318-6.017456-21.056-17.219177-24.115547-30.686813 4.612724-20.305375 22.751678-35.461777 44.427391-35.461777z" fill="#855007"/><path d="m189.960007 119.735733v-20.223358h7.415634v6.134094h4.786041v-3.011459h4.786057v3.107498h4.307525v-9.105408h5.743058v23.098633z" fill="#ffe500"/><path d="m82.485504 104.065048c5.619003 0 10.215958 4.603394 10.215958 10.229477v18.213928c0 5.626313-4.596955 10.229248-10.215958 10.229248-5.618774 0-10.215957-4.602935-10.215957-10.229248v-18.213928c0-5.626083 4.597183-10.229477 10.215957-10.229477zm0-11.046387c-11.686775 0-21.248234 9.574128-21.248234 21.275864v18.213928c0 11.70221 9.561459 21.276093 21.248234 21.276093 11.686585 0 21.248223-9.573883 21.248223-21.276093v-18.213928c0-11.701736-9.561638-21.275864-21.248223-21.275864z" fill="#ffe500"/><path d="m98.731728 133.201569h122.431175v-13.465836h-122.431175z" fill="#ffb700"/><path d="m82.485504 109.911835c5.619003 0 10.215958 4.603164 10.215958 10.229233v18.213943c0 5.626297-4.596955 10.229248-10.215958 10.229248-5.618774 0-10.215957-4.602951-10.215957-10.229248v-18.213943c0-5.626069 4.597183-10.229233 10.215957-10.229233zm0-11.046616c-11.686775 0-21.248234 9.574326-21.248234 21.275849v18.213943c0 11.702179 9.561459 21.276062 21.248234 21.276062 11.686585 0 21.248223-9.573883 21.248223-21.276062v-18.213943c0-11.701523-9.561638-21.275849-21.248223-21.275849z" fill="#fc0"/><path d="m189.960007 122.395645v-20.223129h7.415634v6.133926h4.786041v-3.011505h4.786057v3.107254h4.307525v-9.105148h5.743058v23.098602z" fill="#fc0"/><path d="m175.735001 133.776733 1.387634 1.629212 3.541366-2.204376h9.811768l-2.153763 5.367218c-1.733825 4.320007-4.675049 8.047363-8.471237 10.734619l-4.115768.862701-9.723862-7.511108zm-52.319092 0-1.387818 1.629212-3.541595-2.204376h-9.811363l2.153778 5.367218c1.733406 4.320007 4.674629 8.047363 8.471222 10.734619l4.115776.862701 9.723465-7.511108z" fill="#f63"/><path d="m126.816772 139.914612.625 1.769653c.64386 1.821472.549317 3.822891-.263229 5.57544l5.960831-4.604706zm45.517136 0-.624985 1.769653c-.643661 1.821472-.54956 3.822891.263672 5.57544l-5.961456-4.604706z" fill="#de4816"/><path d="m132.611374 231.251953-3.751602-2.396561c-.412812-.264022-.9375-.278259-1.364273-.037368-.426819.240921-.686501.69696-.675415 1.187652.050636 2.208985.521598 4.388672 1.388061 6.421692.547531 1.284546 1.579575 2.300568 2.871536 2.827713.783051.319153 1.404282.940491 1.723008 1.724503l1.43576 1.150314c.795227.637375 1.845688.856934 2.828919.592056.983215-.264953 1.781768-.983184 2.150222-1.933456l.7164-3.354858zm33.927994 0 3.75177-2.396561c.412811-.264022.9375-.278259 1.363632-.037368.427002.240921.687134.69696.675583 1.187652-.050583 2.208985-.521118 4.388672-1.387589 6.421692-.54776 1.284546-1.580261 2.300568-2.871978 2.827713-.783066.319153-1.40448.940491-1.723191 1.724503l-1.435531 1.150314c-.795472.637375-1.845734.856934-2.828522.592056-.983643-.264953-1.782623-.983184-2.150177-1.933456l-.716461-3.354858z" fill="#964023"/><path d="m133.951447 158.026093-1.244217 9.105834c-.287629 2.104142-.222824 4.242005.191543 6.325715l-1.914505 27.41127c-.144729 2.073013-.176681 4.153122-.095672 6.22969.329589 8.448471-.312729 16.905854-1.914505 25.207642-.533326 2.763718.83609 5.545196 3.350265 6.804825 2.693558 1.349411 5.89978 1.167175 8.423325-.479172 1.354309-.883606 2.314865-2.256958 2.680175-3.833954 2.539963-10.956192 2.702881-22.329239.478547-33.353866l5.668945-20.510453 5.668518 20.510453c-2.22435 11.024627-2.06102 22.397674.478958 33.353866.365311 1.576996 1.326126 2.950348 2.679993 3.833954 2.523956 1.646347 5.729736 1.828583 8.423263.479172 2.514237-1.259629 3.884064-4.041107 3.35051-6.804825-1.601547-8.301788-2.244324-16.759171-1.914963-25.207642.081696-2.076568.049729-4.156677-.094986-6.22969l-1.914901-27.41127c.414566-2.08371.479354-4.221573.191711-6.325715l-1.244675-9.105834-15.623428 5.875457z" fill="#1a1a1a"/><g fill="#f63"><path d="m159.540054 102.612762c1.060898.413361 1.329895 2.268357.600128 4.143342-.728866 1.874786-2.179504 3.059509-3.239486 2.646148-1.061142-.413345-1.330155-2.26857-.60083-4.14331.728637-1.874985 2.179275-3.059769 3.240188-2.64618zm-19.929641 0c-1.060456.413361-1.329453 2.268357-.600602 4.143342.729325 1.874786 2.179947 3.059509 3.240418 2.646148 1.060455-.413345 1.329452-2.26857.600586-4.14331-.728867-1.874985-2.179505-3.059769-3.240402-2.64618z"/><path d="m144.565582 120.983566h10.019501v-7.408828h-10.019501z"/><path d="m140.62114 99.287262h17.907714v8.635574c0 4.749634-3.880264 8.635407-8.623718 8.635407h-.659576c-4.74347 0-8.62442-3.885773-8.62442-8.635407z"/></g><path d="m156.885361 94.368744-.292954-1.480286c-.472763-2.386154-2.825409-3.777771-5.272125-3.119049-3.045548.819779-6.117279 1.490509-9.203644 2.008972-1.311722.220246-2.473358 1.099198-3.064636 2.319016-.591721 1.219848-.527771 2.604812.168228 3.654877l1.296631 9.357193c.345779 2.498153 2.560776 5.180954 5.1185 5.180954h7.576355c2.571014 0 4.882156-1.980118 5.306503-4.546494.558426-3.377289.994324-6.763 1.306839-10.150314.078995-.856476-.187332-1.679459-.739563-2.285248-.55217-.605606-2.156403-.717606-2.200134-.939621z" fill="#333"/><path d="m136.529816 118.633209c-3.949082.770722-7.130677 3.697342-8.232224 7.571793l-4.881683 7.571731.478729 1.533417c1.110863 3.559754 4.027 6.260346 7.657593 7.092438.692001.159088 1.396683.255096 2.10582.287994v8.434235c0 4.730041-1.115052 9.392517-3.25441 13.609665 13.493454 9.008468 24.849945 9.008468 38.343643 0-2.139557-4.217148-3.254639-8.879624-3.254639-13.609665v-8.434235c.709351-.032898 1.414261-.128906 2.10582-.287994 3.631042-.832092 6.546539-3.532684 7.658035-7.092438l.478501-1.533417-4.881913-7.571731c-1.101715-3.874451-4.283554-6.801071-8.232406-7.571793-14.297989-2.790588-11.792679-2.790588-26.090866 0z" fill="#fff"/></g></svg>