<svg height="541" viewBox="0 0 413 541" width="413" xmlns="http://www.w3.org/2000/svg"><path d="m9.466001-.201111c-4.961501 0-8.968401 3.975586-8.968401 8.937134v109.969971 112.149994l-.0004 288.350006c0 4.960022 4.0069 8.960022 8.9684 8.960022h135.340003l2.970001-5.150025v-.279968h.160004l.179993-.320007.190002.320007h98.130005l3.119995 5.429993h143.339996c4.970002 0 8.940003-4 8.940003-8.960022l.164398-257.205994-16-16-.225555-44.300751 16.225555 1.300751-.164398-38.394012-24.835602-20.605988s.600555-114.427826 0-134c-.313324-10.211426-12-10-12-10l-355.5344-.205078z" fill="#1f1573" stroke="#5295d6" stroke-linejoin="round" stroke-width=".99746"/><path d="m13.416202 494.850006h375.167599c7.409546 0 13.416199 7.420899 13.416199 16.575012 0 9.154145-6.006653 16.574982-13.416199 16.574982h-375.167599c-7.409568 0-13.416202-7.420837-13.416202-16.574982 0-9.154113 6.006634-16.575012 13.416202-16.575012z" fill="#1b1363" opacity=".95312"/><path d="m184.490875 39.752441 8.831253-14.760498 9.357788 14.482117z" fill="#fff" stroke="#150f0f" stroke-linejoin="round" stroke-width=".64257"/></svg>