<svg width="600" height="600" viewBox="0 0 600 600" xmlns="http://www.w3.org/2000/svg" xmlns:xlink="http://www.w3.org/1999/xlink">
    <g id="layer1">
        <g id="g4085">
            <path id="path3277" fill="#ffffff" stroke="none" d="M 506.678223 284.659607 C 476.580017 337.559082 392.198578 375.71344 292.840393 375.71344 C 195.851807 375.71344 113.18985 339.580597 81.304962 288.645142 C 73.751526 302.009766 69.50502 316.386902 69.50502 331.259552 C 69.50502 405.14798 170.545898 464.927795 295.142822 464.927795 C 419.739716 464.927795 520.780579 405.14798 520.780579 331.259552 C 520.780579 314.833038 515.811768 299.19873 506.678223 284.659607 Z"/>
            <path id="path3277-4-6" fill="#ffffff" stroke="none" d="M 293.688782 113.067749 C 173.730453 113.067749 76.685089 170.693176 76.685089 241.83075 C 76.685089 312.968323 173.730453 370.900299 293.688782 370.900299 C 413.647095 370.900299 510.980286 312.968323 510.980286 241.83075 C 510.980286 170.693176 413.647095 113.067749 293.688782 113.067749 Z M 230.084259 135.447998 L 256.274353 166.412415 C 263.98996 160.298218 271.870819 153.842712 292.249756 137.287476 L 267.498688 211.172913 L 187.777161 221.903137 C 208.036102 204.959595 215.846405 198.252869 223.176971 192.165039 L 197.562469 161.813721 L 230.084259 135.447998 Z M 322.469116 140.659851 L 399.02478 167.025574 L 406.219879 241.83075 C 389.377747 222.213623 382.925507 214.604858 376.863922 207.493958 L 343.47876 230.180786 L 317.576447 198.29657 L 350.961639 175.609802 C 344.888824 168.136902 338.871918 160.341003 322.469116 140.659851 Z M 175.977234 235.699158 C 192.819336 255.316284 199.271576 262.92511 205.33316 270.03595 L 238.718353 247.349182 L 264.620636 279.233337 L 231.235474 301.920105 C 237.308289 309.393005 243.325165 317.188873 259.727997 336.870087 L 183.172318 310.197754 L 175.977234 235.699158 Z M 397.873566 255.62677 C 377.673676 272.520935 369.523529 278.964783 362.185974 285.058289 L 388.088257 315.716156 L 355.278687 341.77533 L 329.376373 311.424072 C 321.653473 317.545166 313.701782 323.750671 293.40097 340.242462 L 318.152069 266.357056 L 397.873566 255.62677 Z"/>
        </g>
    </g>
</svg>
