<svg height="280" viewBox="0 0 1200 280" width="1200" xmlns="http://www.w3.org/2000/svg" xmlns:xlink="http://www.w3.org/1999/xlink"><radialGradient id="a" cx="1044.068923" cy="131.948528" gradientUnits="userSpaceOnUse" r="1.785835"><stop offset=".00001"/><stop offset="1" stop-opacity="0"/></radialGradient><filter id="b" color-interpolation-filters="sRGB" filterUnits="userSpaceOnUse" height="280" width="1200" x="0" y="0"><feGaussianBlur stdDeviation=".1353"/></filter><filter id="c" color-interpolation-filters="sRGB" filterUnits="userSpaceOnUse" height="280" width="1200" x="0" y="0"><feGaussianBlur stdDeviation=".488358"/></filter><radialGradient id="d" cx="1086.996567" cy="76.840845" gradientUnits="userSpaceOnUse" r="26.117201"><stop offset=".00001" stop-color="#c6c6c6"/><stop offset="1" stop-color="#c3c3c3"/></radialGradient><linearGradient id="e" gradientUnits="userSpaceOnUse" x1="1113.128632" x2="1045.887159" y1="42.386331" y2="76.772956"><stop offset=".00001" stop-color="#323232"/><stop offset="1" stop-color="#202020"/></linearGradient><linearGradient id="f"><stop offset=".00001" stop-color="#f3c300"/><stop offset="1" stop-color="#fd0"/></linearGradient><radialGradient id="g" cx="1086.185123" cy="137.568784" gradientUnits="userSpaceOnUse" r="55.040926" xlink:href="#f"/><radialGradient id="h" cx="1086.185123" cy="137.568784" gradientUnits="userSpaceOnUse" r="62.682911" xlink:href="#f"/><radialGradient id="i" cx="1086.185123" cy="137.568784" gradientUnits="userSpaceOnUse" r="67.194121" xlink:href="#f"/><radialGradient id="j" cx="1082.648097" cy="169.212568" gradientUnits="userSpaceOnUse" r="56.11146" xlink:href="#f"/><radialGradient id="k" cx="1086.216121" cy="142.318101" gradientUnits="userSpaceOnUse" r="52.336687" xlink:href="#f"/><radialGradient id="l" cx="1086.185123" cy="137.568784" gradientUnits="userSpaceOnUse" r="47.347354" xlink:href="#f"/><radialGradient id="m" cx="1086.185123" cy="137.568784" gradientUnits="userSpaceOnUse" r="43.153226" xlink:href="#f"/><radialGradient id="n" cx="1086.185123" cy="137.568784" gradientUnits="userSpaceOnUse" r="39.662711" xlink:href="#f"/><path d="m1024 179 101 69v-215l-102 51z" fill="#929292" fill-rule="evenodd" stroke="#929292" stroke-width=".705453"/><path d="m1125 248h255v-215h-255z" fill="#a7a7a7" fill-rule="evenodd" stroke="#929292" stroke-width=".705453"/><path d="m1044.890381 175.764526c-.48645-.312072-1.086548-8.775512-1.579468-22.227111-.494018-13.479859-.812744-30.118073-.835571-43.772385-.022949-13.842743.261352-22.585083.75061-22.779892.495117-.204025 1.119751 8.368133 1.632935 22.463608.511963 14.064712.827392 31.278671.828247 45.024399.000976 13.55574-.304566 21.613616-.796753 21.291381z" fill="url(#a)" filter="url(#b)" opacity=".641"/><path d="m1098.603149 68.40976c-.012329-4.322922-2.462402-6.811738-5.375732-5.547059l-47.793213 20.747437c-1.15686.502197-2.026245 3.017975-1.977905 5.60469l1.579223 84.478058c.046021 2.459244.986573 5.079666 2.134766 5.854355l46.706665 31.508423c2.801392 1.889801 5.1344.219528 5.123047-3.758118z" filter="url(#c)"/><path d="m1098.603149 68.40976c-.012329-4.322922-2.462402-6.811738-5.375732-5.547059l-47.793213 20.747437c-1.15686.502197-2.026245 3.017975-1.977905 5.60469l1.579223 84.478058c.046021 2.459244.986573 5.079666 2.134766 5.854355l46.706665 31.508423c2.801392 1.889801 5.1344.219528 5.123047-3.758118z" fill="#8c8c8c"/><path d="m1097.665405 68.761276.431153 137.9805c.010254 3.285675-1.917603 4.655624-4.232666 3.114486l-46.705811-31.092621c-.954346-.63536-1.743896-2.802185-1.781982-4.854431l-1.577271-84.824981c-.040161-2.158524.69104-4.234345 1.652344-4.642273l47.773804-20.27005c2.405517-1.020646 4.429199 1.021911 4.440429 4.58937z" fill="url(#d)"/><path d="m1092.743408 74.529572c-.0531-.5999-.411255-.938431-.831787-.78949l-37.601807 13.386337c-.23059.086029-.410278.534607-.404785 1.008133l.320069 20.401169-3.850708.497513c-.209717.030822-.372559.413452-.3667.859726l.132081 7.816116-3.51648.117218c-.191895.009933-.340332.358688-.334228.783585l.490966 27.225341c.009156.418534.169434.802491.360962.863053l3.506836 1.045166.129395 7.646454c.009033.435028.183105.851791.391967.93692l3.829346 1.495132.307495 19.596207c.008911.449951.19812.923553.42627 1.064804l36.785034 22.18811c.439331.259888.794312-.02864.795288-.649948l-.568603-125.356125c.001464-.0457.00122-.090896-.000611-.135421z" fill="#171717"/><path d="m1091.917358 74.951675-37.594116 13.037842.332276 21.344864-4.267456.512863.145507 8.659134-3.896362.095017.490234 27.334335 3.885987 1.12439.142456 8.474365 4.244262 1.620514.319336 20.509079 36.792481 21.88089z" fill="url(#e)"/><path d="m1090.88916 100.773376.025635 5.040253-9.508423 1.08197-.036621-4.672348z" fill="url(#g)"/><path d="m1090.94043 110.839325.025634 5.011154-9.486572.352265-.036499-4.647309z" fill="url(#h)"/><path d="m1090.991577 120.847122.025391 4.982269-9.464844-.369354-.036255-4.622467z" fill="url(#i)"/><path d="m1091.042358 130.797287.025269 4.953629-9.443359-1.083008-.036011-4.597794z" fill="url(#j)"/><path d="m1091.092773 140.690308.025147 4.925216-9.421753-1.788742-.035889-4.573318z" fill="url(#k)"/><path d="m1091.143066 150.526642.025025 4.897079-9.400391-2.486694-.035766-4.549072z" fill="url(#l)"/><path d="m1091.192993 160.306808.02478 4.869156-9.379028-3.176971-.0354-4.524963z" fill="url(#m)"/><path d="m1091.242676 170.031265.024658 4.841507-9.357788-3.859634-.0354-4.501114z" fill="url(#n)"/><path d="m745 159c-66.097229 0-250.644348-32.929581-365-45-142.922607-15.085709-276.746368-6.273743-429 43v-36c96.179455-26.100922 243.405426-59.324326 432-39 216.051575 23.283295 307.92865 42.891479 362 42.891479z" fill="#a7a7a7" fill-rule="evenodd" stroke="#929292" stroke-width=".705453"/><g stroke="#000" stroke-linecap="round" stroke-linejoin="round"><path d="m1091.552856 182.025833h-69.939025v-83.167221h69.939025z" fill="#fff" fill-rule="evenodd" stroke-width="1.804127"/><path d="m1073.981079 118.355637-41.421631 5.864288v31.226318l41.421631 5.635773v34.653152l-173.135132.152329-14.59259-.304642-3.572266-.609283-4.408325-1.447037-3.572204-2.208572-3.420228-3.427201-2.128112-3.807998-1.292054-3.427201-.835998-4.721878-.075989-68.925171-.152038-2.817871.304016-3.274917 1.140075-3.807999.988037-1.98024 2.128113-3.046402 3.192078-2.894104 4.256226-2.589371 5.700134-1.980239 4.78833-1.066239 12.616577.304642h97.511719l74.558532-.304642v34.804901z" fill="#808080" fill-rule="evenodd" stroke-width=".076102"/><path d="m934.737854 165.346863h43.246826v-46.837677h-44.538757s-21.585571.456955-21.1297 23.229156c0 22.772126 22.421631 23.610321 22.421631 23.610321z" fill="#bfbfbf" fill-rule="evenodd" stroke-width=".076102"/><path d="m867.022522 175.932678-121.909912-4.189178v-57.804642l121.909912-6.854401v68.849305z" fill="#d9d9d9" fill-rule="evenodd" stroke-width=".076102"/><path d="m836.545044 175.0186v-66.182968l8.056396-.456955v66.64h-8.055847z" fill="#808080" fill-rule="evenodd" stroke-width=".076102"/><path d="m815.339661 174.18042v-64.051361l7.676391-.456955v64.508377h-7.675659z" fill="#808080" fill-rule="evenodd" stroke-width=".076102"/><path d="m805.155884 173.801056v-63.289032l-7.600403.456955v62.374969l7.600403.456955z" fill="#808080" fill-rule="evenodd" stroke-width=".076102"/><path d="m782.809937 172.886993v-61.079742l-7.676453.380798v60.700379h7.67572z" fill="#808080" fill-rule="evenodd" stroke-width=".076102"/><path d="m765.786499 172.505829v-59.862183l-7.144348.456955v59.024002l7.144348.380799z" fill="#808080" fill-rule="evenodd" stroke-width=".076102"/><path d="m758.642334 148.516159h7.144348v-10.509933h-7.144165v10.510101z" fill="#d9d9d9" fill-rule="evenodd" stroke-width=".076102"/><path d="m775.134216 148.97319h7.676392v-11.423996l-7.675659.457032v10.966964z" fill="#d9d9d9" fill-rule="evenodd" stroke-width=".076102"/><path d="m797.555847 148.97319 7.600342.380799v-11.805161h-7.599976v11.423996z" fill="#d9d9d9" fill-rule="evenodd" stroke-width=".076102"/><path d="m815.339661 149.352539h7.676391v-11.80516h-7.675659v11.804794z" fill="#d9d9d9" fill-rule="evenodd" stroke-width=".076102"/><path d="m836.545044 149.80957h8.056396v-12.719223h-8.055847v12.718689z" fill="#d9d9d9" fill-rule="evenodd" stroke-width=".076102"/><path d="m1090.251343 182.1017v-83.167221" fill="none" stroke-width="1.804127"/><path d="m1092 154-42.490967-.534897v-25.514313l42.490967.04921z" fill="none" stroke-width="1.804127"/></g></svg>