<svg height="941" viewBox="0 0 601 941" width="601" xmlns="http://www.w3.org/2000/svg"><path d="m26.181107 527.275574v-387.401551h510.23619v774.803162h-510.23619z" fill="#27ae60" fill-rule="evenodd"/><path d="m372.629913 558.858276v-22.519714h45.039399v45.039368h-45.039399z" fill="#2c3e50" fill-rule="evenodd"/><g fill="none"><path d="m423.299225 541.968506h-5.629913" stroke="#ecf0f1" stroke-linejoin="round" stroke-width="2.956115"/><path d="m423.299225 547.598389h-5.629913" stroke="#ecf0f1" stroke-linejoin="round" stroke-width="2.956115"/><path d="m423.299225 553.228333h-5.629913" stroke="#ecf0f1" stroke-linejoin="round" stroke-width="2.956115"/><path d="m423.299225 558.858276h-5.629913" stroke="#ecf0f1" stroke-linejoin="round" stroke-width="2.956115"/><path d="m423.299225 564.488159h-5.629913" stroke="#ecf0f1" stroke-linejoin="round" stroke-width="2.956115"/><path d="m423.299225 570.118164h-5.629913" stroke="#ecf0f1" stroke-linejoin="round" stroke-width="2.956115"/><path d="m423.299225 575.748047h-5.629913" stroke="#ecf0f1" stroke-linejoin="round" stroke-width="2.956115"/><path d="m372.629913 541.968506h-5.629913" stroke="#ecf0f1" stroke-linejoin="round" stroke-width="2.956115"/><path d="m372.629913 547.598389h-5.629913" stroke="#ecf0f1" stroke-linejoin="round" stroke-width="2.956115"/><path d="m372.629913 553.228333h-5.629913" stroke="#ecf0f1" stroke-linejoin="round" stroke-width="2.956115"/><path d="m372.629913 558.858276h-5.629913" stroke="#ecf0f1" stroke-linejoin="round" stroke-width="2.956115"/><path d="m372.629913 564.488159h-5.629913" stroke="#ecf0f1" stroke-linejoin="round" stroke-width="2.956115"/><path d="m372.629913 570.118164h-5.629913" stroke="#ecf0f1" stroke-linejoin="round" stroke-width="2.956115"/><path d="m372.629913 575.748047h-5.629913" stroke="#ecf0f1" stroke-linejoin="round" stroke-width="2.956115"/><path d="m378.259827 530.708618v5.629944" stroke="#ecf0f1" stroke-linejoin="round" stroke-width="2.956115"/><path d="m383.88974 530.708618v5.629944" stroke="#ecf0f1" stroke-linejoin="round" stroke-width="2.956115"/><path d="m389.519684 530.708618v5.629944" stroke="#ecf0f1" stroke-linejoin="round" stroke-width="2.956115"/><path d="m395.149597 530.708618v5.629944" stroke="#ecf0f1" stroke-linejoin="round" stroke-width="2.956115"/><path d="m400.779541 530.708618v5.629944" stroke="#ecf0f1" stroke-linejoin="round" stroke-width="2.956115"/><path d="m406.409454 530.708618v5.629944" stroke="#ecf0f1" stroke-linejoin="round" stroke-width="2.956115"/><path d="m412.039368 530.708618v5.629944" stroke="#ecf0f1" stroke-linejoin="round" stroke-width="2.956115"/><path d="m378.259827 581.37793v5.629944" stroke="#ecf0f1" stroke-linejoin="round" stroke-width="2.956115"/><path d="m383.88974 581.37793v5.629944" stroke="#ecf0f1" stroke-linejoin="round" stroke-width="2.956115"/><path d="m389.519684 581.37793v5.629944" stroke="#ecf0f1" stroke-linejoin="round" stroke-width="2.956115"/><path d="m395.149597 581.37793v5.629944" stroke="#ecf0f1" stroke-linejoin="round" stroke-width="2.956115"/><path d="m400.779541 581.37793v5.629944" stroke="#ecf0f1" stroke-linejoin="round" stroke-width="2.956115"/><path d="m406.409454 581.37793v5.629944" stroke="#ecf0f1" stroke-linejoin="round" stroke-width="2.956115"/><path d="m412.039368 581.37793v5.629944" stroke="#ecf0f1" stroke-linejoin="round" stroke-width="2.956115"/></g><path d="m215.157471 555.62207v-56.692932h113.385833v113.385803h-113.385833z" fill="#2c3e50" fill-rule="evenodd"/><path d="m82.874008 655.628357v7.861389l-5.518097 5.555908h-7.861419l-5.555909-5.555908v-7.861389l5.555909-5.518128h7.861419z" fill="#2c3e50" fill-rule="evenodd"/><path d="m82.874008 650.110229-9.448807 9.448853" fill="none" stroke="#f1c40f" stroke-linecap="round" stroke-linejoin="round" stroke-width="7.559055"/><path d="m63.976379 655.628357v7.861389l-5.518112 5.555908h-7.861419l-5.555909-5.555908v-7.861389l5.555909-5.518128h7.861419z" fill="#2c3e50" fill-rule="evenodd"/><path d="m63.976379 650.110229-9.448822 9.448853" fill="none" stroke="#f1c40f" stroke-linecap="round" stroke-linejoin="round" stroke-width="7.559055"/><path d="m82.874008 674.526001v7.861389l-5.518097 5.555908h-7.861419l-5.555909-5.555908v-7.861389l5.555909-5.518127h7.861419z" fill="#2c3e50" fill-rule="evenodd"/><path d="m82.874008 669.007874-9.448807 9.448791" fill="none" stroke="#f1c40f" stroke-linecap="round" stroke-linejoin="round" stroke-width="7.559055"/><path d="m63.976379 674.526001v7.861389l-5.518112 5.555908h-7.861419l-5.555909-5.555908v-7.861389l5.555909-5.518127h7.861419z" fill="#2c3e50" fill-rule="evenodd"/><path d="m63.976379 669.007874-9.448822 9.448791" fill="none" stroke="#f1c40f" stroke-linecap="round" stroke-linejoin="round" stroke-width="7.559055"/><path d="m82.874008 693.423645v7.861389l-5.518097 5.555908h-7.861419l-5.555909-5.555908v-7.861389l5.555909-5.518127h7.861419z" fill="#2c3e50" fill-rule="evenodd"/><path d="m82.874008 687.905518-9.448807 9.448791" fill="none" stroke="#f1c40f" stroke-linecap="round" stroke-linejoin="round" stroke-width="7.559055"/><path d="m63.976379 693.423645v7.861389l-5.518112 5.555908h-7.861419l-5.555909-5.555908v-7.861389l5.555909-5.518127h7.861419z" fill="#2c3e50" fill-rule="evenodd"/><path d="m63.976379 687.905518-9.448822 9.448791" fill="none" stroke="#f1c40f" stroke-linecap="round" stroke-linejoin="round" stroke-width="7.559055"/><path d="m82.874008 712.321289v7.861389l-5.518097 5.555908h-7.861419l-5.555909-5.555908v-7.861389l5.555909-5.518127h7.861419z" fill="#2c3e50" fill-rule="evenodd"/><path d="m82.874008 706.803162-9.448807 9.448791" fill="none" stroke="#f1c40f" stroke-linecap="round" stroke-linejoin="round" stroke-width="7.559055"/><path d="m63.976379 712.321289v7.861389l-5.518112 5.555908h-7.861419l-5.555909-5.555908v-7.861389l5.555909-5.518127h7.861419z" fill="#2c3e50" fill-rule="evenodd"/><path d="m63.976379 706.803162-9.448822 9.448791" fill="none" stroke="#f1c40f" stroke-linecap="round" stroke-linejoin="round" stroke-width="7.559055"/><path d="m82.874008 731.218872v7.86145l-5.518097 5.555908h-7.861419l-5.555909-5.555908v-7.86145l5.555909-5.518066h7.861419z" fill="#2c3e50" fill-rule="evenodd"/><path d="m82.874008 725.700806-9.448807 9.448791" fill="none" stroke="#f1c40f" stroke-linecap="round" stroke-linejoin="round" stroke-width="7.559055"/><path d="m63.976379 731.218872v7.86145l-5.518112 5.555908h-7.861419l-5.555909-5.555908v-7.86145l5.555909-5.518066h7.861419z" fill="#2c3e50" fill-rule="evenodd"/><path d="m63.976379 725.700806-9.448822 9.448791" fill="none" stroke="#f1c40f" stroke-linecap="round" stroke-linejoin="round" stroke-width="7.559055"/><path d="m82.874008 750.116516v7.86145l-5.518097 5.555909h-7.861419l-5.555909-5.555909v-7.86145l5.555909-5.518066h7.861419z" fill="#2c3e50" fill-rule="evenodd"/><path d="m82.874008 744.59845-9.448807 9.448791" fill="none" stroke="#f1c40f" stroke-linecap="round" stroke-linejoin="round" stroke-width="7.559055"/><path d="m63.976379 750.116516v7.86145l-5.518112 5.555909h-7.861419l-5.555909-5.555909v-7.86145l5.555909-5.518066h7.861419z" fill="#2c3e50" fill-rule="evenodd"/><path d="m63.976379 744.59845-9.448822 9.448791" fill="none" stroke="#f1c40f" stroke-linecap="round" stroke-linejoin="round" stroke-width="7.559055"/><path d="m82.874008 769.01416v7.86145l-5.518097 5.555909h-7.861419l-5.555909-5.555909v-7.86145l5.555909-5.518127h7.861419z" fill="#2c3e50" fill-rule="evenodd"/><path d="m82.874008 763.496033-9.448807 9.448852" fill="none" stroke="#f1c40f" stroke-linecap="round" stroke-linejoin="round" stroke-width="7.559055"/><path d="m63.976379 769.01416v7.86145l-5.518112 5.555909h-7.861419l-5.555909-5.555909v-7.86145l5.555909-5.518127h7.861419z" fill="#2c3e50" fill-rule="evenodd"/><path d="m63.976379 763.496033-9.448822 9.448852" fill="none" stroke="#f1c40f" stroke-linecap="round" stroke-linejoin="round" stroke-width="7.559055"/><path d="m82.874008 787.911804v7.86145l-5.518097 5.555909h-7.861419l-5.555909-5.555909v-7.86145l5.555909-5.518127h7.861419z" fill="#2c3e50" fill-rule="evenodd"/><path d="m82.874008 782.393677-9.448807 9.448852" fill="none" stroke="#f1c40f" stroke-linecap="round" stroke-linejoin="round" stroke-width="7.559055"/><path d="m63.976379 787.911804v7.86145l-5.518112 5.555909h-7.861419l-5.555909-5.555909v-7.86145l5.555909-5.518127h7.861419z" fill="#2c3e50" fill-rule="evenodd"/><path d="m63.976379 782.393677-9.448822 9.448852" fill="none" stroke="#f1c40f" stroke-linecap="round" stroke-linejoin="round" stroke-width="7.559055"/><path d="m82.874008 806.809448v7.861389l-5.518097 5.555909h-7.861419l-5.555909-5.555909v-7.861389l5.555909-5.518127h7.861419z" fill="#2c3e50" fill-rule="evenodd"/><path d="m82.874008 801.291321-9.448807 9.448852" fill="none" stroke="#f1c40f" stroke-linecap="round" stroke-linejoin="round" stroke-width="7.559055"/><path d="m63.976379 806.809448v7.861389l-5.518112 5.555909h-7.861419l-5.555909-5.555909v-7.861389l5.555909-5.518127h7.861419z" fill="#2c3e50" fill-rule="evenodd"/><path d="m63.976379 801.291321-9.448822 9.448852" fill="none" stroke="#f1c40f" stroke-linecap="round" stroke-linejoin="round" stroke-width="7.559055"/><path d="m82.874008 825.707092v7.861389l-5.518097 5.555909h-7.861419l-5.555909-5.555909v-7.861389l5.555909-5.518127h7.861419z" fill="#2c3e50" fill-rule="evenodd"/><path d="m82.874008 820.188965-9.448807 9.448852" fill="none" stroke="#f1c40f" stroke-linecap="round" stroke-linejoin="round" stroke-width="7.559055"/><path d="m63.976379 825.707092v7.861389l-5.518112 5.555909h-7.861419l-5.555909-5.555909v-7.861389l5.555909-5.518127h7.861419z" fill="#2c3e50" fill-rule="evenodd"/><path d="m63.976379 820.188965-9.448822 9.448852" fill="none" stroke="#f1c40f" stroke-linecap="round" stroke-linejoin="round" stroke-width="7.559055"/><path d="m82.874008 844.604736v7.861389l-5.518097 5.555909h-7.861419l-5.555909-5.555909v-7.861389l5.555909-5.518127h7.861419z" fill="#2c3e50" fill-rule="evenodd"/><path d="m82.874008 839.086609-9.448807 9.448852" fill="none" stroke="#f1c40f" stroke-linecap="round" stroke-linejoin="round" stroke-width="7.559055"/><path d="m63.976379 844.604736v7.861389l-5.518112 5.555909h-7.861419l-5.555909-5.555909v-7.861389l5.555909-5.518127h7.861419z" fill="#2c3e50" fill-rule="evenodd"/><path d="m63.976379 839.086609-9.448822 9.448852" fill="none" stroke="#f1c40f" stroke-linecap="round" stroke-linejoin="round" stroke-width="7.559055"/><path d="m82.874008 863.50238v7.86139l-5.518097 5.555908h-7.861419l-5.555909-5.555908v-7.86139l5.555909-5.518127h7.861419z" fill="#2c3e50" fill-rule="evenodd"/><path d="m82.874008 857.984253-9.448807 9.448791" fill="none" stroke="#f1c40f" stroke-linecap="round" stroke-linejoin="round" stroke-width="7.559055"/><path d="m63.976379 863.50238v7.86139l-5.518112 5.555908h-7.861419l-5.555909-5.555908v-7.86139l5.555909-5.518127h7.861419z" fill="#2c3e50" fill-rule="evenodd"/><path d="m63.976379 857.984253-9.448822 9.448791" fill="none" stroke="#f1c40f" stroke-linecap="round" stroke-linejoin="round" stroke-width="7.559055"/><path d="m82.874008 882.400024v7.86139l-5.518097 5.555908h-7.861419l-5.555909-5.555908v-7.86139l5.555909-5.518127h7.861419z" fill="#2c3e50" fill-rule="evenodd"/><path d="m82.874008 876.881897-9.448807 9.448791" fill="none" stroke="#f1c40f" stroke-linecap="round" stroke-linejoin="round" stroke-width="7.559055"/><path d="m63.976379 882.400024v7.86139l-5.518112 5.555908h-7.861419l-5.555909-5.555908v-7.86139l5.555909-5.518127h7.861419z" fill="#2c3e50" fill-rule="evenodd"/><path d="m63.976379 876.881897-9.448822 9.448791" fill="none" stroke="#f1c40f" stroke-linecap="round" stroke-linejoin="round" stroke-width="7.559055"/><path d="m82.874008 409.628357v7.861389l-5.518097 5.555908h-7.861419l-5.555909-5.555908v-7.861389l5.555909-5.518128h7.861419z" fill="#2c3e50" fill-rule="evenodd"/><path d="m82.874008 404.110229-9.448807 9.448853" fill="none" stroke="#f1c40f" stroke-linecap="round" stroke-linejoin="round" stroke-width="7.559055"/><path d="m63.976379 409.628357v7.861389l-5.518112 5.555908h-7.861419l-5.555909-5.555908v-7.861389l5.555909-5.518128h7.861419z" fill="#2c3e50" fill-rule="evenodd"/><path d="m63.976379 404.110229-9.448822 9.448853" fill="none" stroke="#f1c40f" stroke-linecap="round" stroke-linejoin="round" stroke-width="7.559055"/><path d="m82.874008 428.526001v7.861389l-5.518097 5.555908h-7.861419l-5.555909-5.555908v-7.861389l5.555909-5.518127h7.861419z" fill="#2c3e50" fill-rule="evenodd"/><path d="m82.874008 423.007874-9.448807 9.448791" fill="none" stroke="#f1c40f" stroke-linecap="round" stroke-linejoin="round" stroke-width="7.559055"/><path d="m63.976379 428.526001v7.861389l-5.518112 5.555908h-7.861419l-5.555909-5.555908v-7.861389l5.555909-5.518127h7.861419z" fill="#2c3e50" fill-rule="evenodd"/><path d="m63.976379 423.007874-9.448822 9.448791" fill="none" stroke="#f1c40f" stroke-linecap="round" stroke-linejoin="round" stroke-width="7.559055"/><path d="m82.874008 447.423645v7.861389l-5.518097 5.555908h-7.861419l-5.555909-5.555908v-7.861389l5.555909-5.518127h7.861419z" fill="#2c3e50" fill-rule="evenodd"/><path d="m82.874008 441.905518-9.448807 9.448791" fill="none" stroke="#f1c40f" stroke-linecap="round" stroke-linejoin="round" stroke-width="7.559055"/><path d="m63.976379 447.423645v7.861389l-5.518112 5.555908h-7.861419l-5.555909-5.555908v-7.861389l5.555909-5.518127h7.861419z" fill="#2c3e50" fill-rule="evenodd"/><path d="m63.976379 441.905518-9.448822 9.448791" fill="none" stroke="#f1c40f" stroke-linecap="round" stroke-linejoin="round" stroke-width="7.559055"/><path d="m82.874008 466.321289v7.861389l-5.518097 5.555908h-7.861419l-5.555909-5.555908v-7.861389l5.555909-5.518127h7.861419z" fill="#2c3e50" fill-rule="evenodd"/><path d="m82.874008 460.803162-9.448807 9.448791" fill="none" stroke="#f1c40f" stroke-linecap="round" stroke-linejoin="round" stroke-width="7.559055"/><path d="m63.976379 466.321289v7.861389l-5.518112 5.555908h-7.861419l-5.555909-5.555908v-7.861389l5.555909-5.518127h7.861419z" fill="#2c3e50" fill-rule="evenodd"/><path d="m63.976379 460.803162-9.448822 9.448791" fill="none" stroke="#f1c40f" stroke-linecap="round" stroke-linejoin="round" stroke-width="7.559055"/><path d="m82.874008 485.218872v7.86145l-5.518097 5.555908h-7.861419l-5.555909-5.555908v-7.86145l5.555909-5.518066h7.861419z" fill="#2c3e50" fill-rule="evenodd"/><path d="m82.874008 479.700806-9.448807 9.448791" fill="none" stroke="#f1c40f" stroke-linecap="round" stroke-linejoin="round" stroke-width="7.559055"/><path d="m63.976379 485.218872v7.86145l-5.518112 5.555908h-7.861419l-5.555909-5.555908v-7.86145l5.555909-5.518066h7.861419z" fill="#2c3e50" fill-rule="evenodd"/><path d="m63.976379 479.700806-9.448822 9.448791" fill="none" stroke="#f1c40f" stroke-linecap="round" stroke-linejoin="round" stroke-width="7.559055"/><path d="m82.874008 504.116516v7.86145l-5.518097 5.555909h-7.861419l-5.555909-5.555909v-7.86145l5.555909-5.518066h7.861419z" fill="#2c3e50" fill-rule="evenodd"/><path d="m82.874008 498.59845-9.448807 9.448791" fill="none" stroke="#f1c40f" stroke-linecap="round" stroke-linejoin="round" stroke-width="7.559055"/><path d="m63.976379 504.116516v7.86145l-5.518112 5.555909h-7.861419l-5.555909-5.555909v-7.86145l5.555909-5.518066h7.861419z" fill="#2c3e50" fill-rule="evenodd"/><path d="m63.976379 498.59845-9.448822 9.448791" fill="none" stroke="#f1c40f" stroke-linecap="round" stroke-linejoin="round" stroke-width="7.559055"/><path d="m82.874008 523.01416v7.86145l-5.518097 5.555909h-7.861419l-5.555909-5.555909v-7.86145l5.555909-5.518127h7.861419z" fill="#2c3e50" fill-rule="evenodd"/><path d="m82.874008 517.496033-9.448807 9.448852" fill="none" stroke="#f1c40f" stroke-linecap="round" stroke-linejoin="round" stroke-width="7.559055"/><path d="m63.976379 523.01416v7.86145l-5.518112 5.555909h-7.861419l-5.555909-5.555909v-7.86145l5.555909-5.518127h7.861419z" fill="#2c3e50" fill-rule="evenodd"/><path d="m63.976379 517.496033-9.448822 9.448852" fill="none" stroke="#f1c40f" stroke-linecap="round" stroke-linejoin="round" stroke-width="7.559055"/><path d="m82.874008 541.911804v7.86145l-5.518097 5.555909h-7.861419l-5.555909-5.555909v-7.86145l5.555909-5.518127h7.861419z" fill="#2c3e50" fill-rule="evenodd"/><path d="m82.874008 536.393677-9.448807 9.448852" fill="none" stroke="#f1c40f" stroke-linecap="round" stroke-linejoin="round" stroke-width="7.559055"/><path d="m63.976379 541.911804v7.86145l-5.518112 5.555909h-7.861419l-5.555909-5.555909v-7.86145l5.555909-5.518127h7.861419z" fill="#2c3e50" fill-rule="evenodd"/><path d="m63.976379 536.393677-9.448822 9.448852" fill="none" stroke="#f1c40f" stroke-linecap="round" stroke-linejoin="round" stroke-width="7.559055"/><path d="m82.874008 560.809448v7.861389l-5.518097 5.555909h-7.861419l-5.555909-5.555909v-7.861389l5.555909-5.518127h7.861419z" fill="#2c3e50" fill-rule="evenodd"/><path d="m82.874008 555.291321-9.448807 9.448852" fill="none" stroke="#f1c40f" stroke-linecap="round" stroke-linejoin="round" stroke-width="7.559055"/><path d="m63.976379 560.809448v7.861389l-5.518112 5.555909h-7.861419l-5.555909-5.555909v-7.861389l5.555909-5.518127h7.861419z" fill="#2c3e50" fill-rule="evenodd"/><path d="m63.976379 555.291321-9.448822 9.448852" fill="none" stroke="#f1c40f" stroke-linecap="round" stroke-linejoin="round" stroke-width="7.559055"/><path d="m82.874008 579.707092v7.861389l-5.518097 5.555909h-7.861419l-5.555909-5.555909v-7.861389l5.555909-5.518127h7.861419z" fill="#2c3e50" fill-rule="evenodd"/><path d="m82.874008 574.188965-9.448807 9.448852" fill="none" stroke="#f1c40f" stroke-linecap="round" stroke-linejoin="round" stroke-width="7.559055"/><path d="m63.976379 579.707092v7.861389l-5.518112 5.555909h-7.861419l-5.555909-5.555909v-7.861389l5.555909-5.518127h7.861419z" fill="#2c3e50" fill-rule="evenodd"/><path d="m63.976379 574.188965-9.448822 9.448852" fill="none" stroke="#f1c40f" stroke-linecap="round" stroke-linejoin="round" stroke-width="7.559055"/><path d="m82.874008 598.604736v7.861389l-5.518097 5.555909h-7.861419l-5.555909-5.555909v-7.861389l5.555909-5.518127h7.861419z" fill="#2c3e50" fill-rule="evenodd"/><path d="m82.874008 593.086609-9.448807 9.448852" fill="none" stroke="#f1c40f" stroke-linecap="round" stroke-linejoin="round" stroke-width="7.559055"/><path d="m63.976379 598.604736v7.861389l-5.518112 5.555909h-7.861419l-5.555909-5.555909v-7.861389l5.555909-5.518127h7.861419z" fill="#2c3e50" fill-rule="evenodd"/><path d="m63.976379 593.086609-9.448822 9.448852" fill="none" stroke="#f1c40f" stroke-linecap="round" stroke-linejoin="round" stroke-width="7.559055"/><path d="m82.874008 617.50238v7.86139l-5.518097 5.555908h-7.861419l-5.555909-5.555908v-7.86139l5.555909-5.518127h7.861419z" fill="#2c3e50" fill-rule="evenodd"/><path d="m82.874008 611.984253-9.448807 9.448791" fill="none" stroke="#f1c40f" stroke-linecap="round" stroke-linejoin="round" stroke-width="7.559055"/><path d="m63.976379 617.50238v7.86139l-5.518112 5.555908h-7.861419l-5.555909-5.555908v-7.86139l5.555909-5.518127h7.861419z" fill="#2c3e50" fill-rule="evenodd"/><path d="m63.976379 611.984253-9.448822 9.448791" fill="none" stroke="#f1c40f" stroke-linecap="round" stroke-linejoin="round" stroke-width="7.559055"/><path d="m82.874008 636.400024v7.86139l-5.518097 5.555908h-7.861419l-5.555909-5.555908v-7.86139l5.555909-5.518127h7.861419z" fill="#2c3e50" fill-rule="evenodd"/><path d="m82.874008 630.881897-9.448807 9.448791" fill="none" stroke="#f1c40f" stroke-linecap="round" stroke-linejoin="round" stroke-width="7.559055"/><path d="m63.976379 636.400024v7.86139l-5.518112 5.555908h-7.861419l-5.555909-5.555908v-7.86139l5.555909-5.518127h7.861419z" fill="#2c3e50" fill-rule="evenodd"/><path d="m63.976379 630.881897-9.448822 9.448791" fill="none" stroke="#f1c40f" stroke-linecap="round" stroke-linejoin="round" stroke-width="7.559055"/><path d="m177.362213 810.740173v-18.897644h207.873993v37.795288h-207.873993z" fill="#2c3e50" fill-rule="evenodd"/><path d="m196.259857 801.291321v-9.448792h170.078736v18.897644h-170.078736z" fill="#bdc3c7" fill-rule="evenodd"/><path d="m347.440948 782.393677v9.448852" fill="none" stroke="#f1c40f" stroke-linejoin="round" stroke-width="7.559055"/><path d="m328.543304 782.393677v9.448852" fill="none" stroke="#f1c40f" stroke-linejoin="round" stroke-width="7.559055"/><path d="m309.64566 782.393677v9.448852" fill="none" stroke="#f1c40f" stroke-linejoin="round" stroke-width="7.559055"/><path d="m290.748016 782.393677v9.448852" fill="none" stroke="#f1c40f" stroke-linejoin="round" stroke-width="7.559055"/><path d="m271.850403 782.393677v9.448852" fill="none" stroke="#f1c40f" stroke-linejoin="round" stroke-width="7.559055"/><path d="m252.952759 782.393677v9.448852" fill="none" stroke="#f1c40f" stroke-linejoin="round" stroke-width="7.559055"/><path d="m234.055115 782.393677v9.448852" fill="none" stroke="#f1c40f" stroke-linejoin="round" stroke-width="7.559055"/><path d="m215.157471 782.393677v9.448852" fill="none" stroke="#f1c40f" stroke-linejoin="round" stroke-width="7.559055"/><path d="m347.440948 376.094482v-18.897644h188.976349v37.795288h-188.976349z" fill="#2c3e50" fill-rule="evenodd"/><path d="m366.338593 385.543335v-9.448853h151.181121v18.897644h-151.181121z" fill="#bdc3c7" fill-rule="evenodd"/><path d="m498.62207 394.992126v9.448853" fill="none" stroke="#f1c40f" stroke-linejoin="round" stroke-width="7.559055"/><path d="m479.724426 394.992126v9.448853" fill="none" stroke="#f1c40f" stroke-linejoin="round" stroke-width="7.559055"/><path d="m460.826782 394.992126v9.448853" fill="none" stroke="#f1c40f" stroke-linejoin="round" stroke-width="7.559055"/><path d="m441.929138 394.992126v9.448853" fill="none" stroke="#f1c40f" stroke-linejoin="round" stroke-width="7.559055"/><path d="m423.031494 394.992126v9.448853" fill="none" stroke="#f1c40f" stroke-linejoin="round" stroke-width="7.559055"/><path d="m404.13385 394.992126v9.448853" fill="none" stroke="#f1c40f" stroke-linejoin="round" stroke-width="7.559055"/><path d="m385.236206 394.992126v9.448853" fill="none" stroke="#f1c40f" stroke-linejoin="round" stroke-width="7.559055"/><path d="m262.061432 396.881897c0 2.683472-2.040955 4.724426-4.724426 4.724426-2.683472 0-4.724396-2.040954-4.724396-4.724426s2.040924-4.724426 4.724396-4.724426c2.683471 0 4.724426 2.040954 4.724426 4.724426z" fill="#2c3e50" fill-rule="evenodd"/><path d="m262.061432 396.881897c0 2.683472-2.040955 4.724426-4.724426 4.724426-2.683472 0-4.724396-2.040954-4.724396-4.724426s2.040924-4.724426 4.724396-4.724426c2.683471 0 4.724426 2.040954 4.724426 4.724426z" fill="none" stroke="#f1c40f" stroke-linejoin="round" stroke-width="3.779528"/><path d="m242.86142 396.881897c0 2.683472-2.040955 4.724426-4.724427 4.724426-2.683441 0-4.724395-2.040954-4.724395-4.724426s2.040954-4.724426 4.724395-4.724426c2.683472 0 4.724427 2.040954 4.724427 4.724426z" fill="#2c3e50" fill-rule="evenodd"/><path d="m242.86142 396.881897c0 2.683472-2.040955 4.724426-4.724427 4.724426-2.683441 0-4.724395-2.040954-4.724395-4.724426s2.040954-4.724426 4.724395-4.724426c2.683472 0 4.724427 2.040954 4.724427 4.724426z" fill="none" stroke="#f1c40f" stroke-linejoin="round" stroke-width="3.779528"/><path d="m223.623627 396.881897c0 2.683472-2.040955 4.724426-4.724427 4.724426-2.683441 0-4.724395-2.040954-4.724395-4.724426s2.040954-4.724426 4.724395-4.724426c2.683472 0 4.724427 2.040954 4.724427 4.724426z" fill="#2c3e50" fill-rule="evenodd"/><path d="m223.623627 396.881897c0 2.683472-2.040955 4.724426-4.724427 4.724426-2.683441 0-4.724395-2.040954-4.724395-4.724426s2.040954-4.724426 4.724395-4.724426c2.683472 0 4.724427 2.040954 4.724427 4.724426z" fill="none" stroke="#f1c40f" stroke-linejoin="round" stroke-width="3.779528"/><path d="m204.423615 396.881897c0 2.683472-2.040925 4.724426-4.724396 4.724426-2.683472 0-4.724427-2.040954-4.724427-4.724426s2.040955-4.724426 4.724427-4.724426c2.683471 0 4.724396 2.040954 4.724396 4.724426z" fill="#2c3e50" fill-rule="evenodd"/><path d="m204.423615 396.881897c0 2.683472-2.040925 4.724426-4.724396 4.724426-2.683472 0-4.724427-2.040954-4.724427-4.724426s2.040955-4.724426 4.724427-4.724426c2.683471 0 4.724396 2.040954 4.724396 4.724426z" fill="none" stroke="#f1c40f" stroke-linejoin="round" stroke-width="3.779528"/><path d="m185.185822 396.881897c0 2.683472-2.040955 4.724426-4.724396 4.724426-2.683472 0-4.724426-2.040954-4.724426-4.724426s2.040954-4.724426 4.724426-4.724426c2.683441 0 4.724396 2.040954 4.724396 4.724426z" fill="#2c3e50" fill-rule="evenodd"/><path d="m185.185822 396.881897c0 2.683472-2.040955 4.724426-4.724396 4.724426-2.683472 0-4.724426-2.040954-4.724426-4.724426s2.040954-4.724426 4.724426-4.724426c2.683441 0 4.724396 2.040954 4.724396 4.724426z" fill="none" stroke="#f1c40f" stroke-linejoin="round" stroke-width="3.779528"/><path d="m167.913391 396.881897c0 2.683472-2.040954 4.724426-4.724426 4.724426-2.683441 0-4.724396-2.040954-4.724396-4.724426s2.040955-4.724426 4.724396-4.724426c2.683472 0 4.724426 2.040954 4.724426 4.724426z" fill="#2c3e50" fill-rule="evenodd"/><path d="m167.913391 396.881897c0 2.683472-2.040954 4.724426-4.724426 4.724426-2.683441 0-4.724396-2.040954-4.724396-4.724426s2.040955-4.724426 4.724396-4.724426c2.683472 0 4.724426 2.040954 4.724426 4.724426z" fill="none" stroke="#f1c40f" stroke-linejoin="round" stroke-width="3.779528"/><path d="m271.850403 396.881897v-7.559021h15.118103v15.118103h-15.118103z" fill="#f1c40f" fill-rule="evenodd"/><path d="m284.13385 396.881897c0 2.683472-2.040924 4.724426-4.724396 4.724426-2.683471 0-4.724426-2.040954-4.724426-4.724426s2.040955-4.724426 4.724426-4.724426c2.683472 0 4.724396 2.040954 4.724396 4.724426z" fill="#2c3e50" fill-rule="evenodd"/><path d="m284.13385 396.881897c0 2.683472-2.040924 4.724426-4.724396 4.724426-2.683471 0-4.724426-2.040954-4.724426-4.724426s2.040955-4.724426 4.724426-4.724426c2.683472 0 4.724396 2.040954 4.724396 4.724426z" fill="none" stroke="#f1c40f" stroke-linejoin="round" stroke-width="3.779528"/><path d="m423.031494 127.220459v-103.937012h151.181091v207.874024h-151.181091z" fill="#bdc3c7" fill-rule="evenodd"/><path d="m423.031494 23.283447-37.795288 37.795288v207.874024h151.181091l37.795288-37.795288h-151.181091z" fill="#95a5a6" fill-rule="evenodd"/><path d="m196.259857 309.952759v-37.795288h75.590546v75.590576h-75.590546z" fill="#2c3e50" fill-rule="evenodd"/><path d="m281.299225 281.606323h-9.448822" fill="none" stroke="#ecf0f1" stroke-linejoin="round" stroke-width="3.779528"/><path d="m281.299225 291.055115h-9.448822" fill="none" stroke="#ecf0f1" stroke-linejoin="round" stroke-width="3.779528"/><path d="m281.299225 300.503967h-9.448822" fill="none" stroke="#ecf0f1" stroke-linejoin="round" stroke-width="3.779528"/><path d="m281.299225 309.952759h-9.448822" fill="none" stroke="#ecf0f1" stroke-linejoin="round" stroke-width="3.779528"/><path d="m281.299225 319.401611h-9.448822" fill="none" stroke="#ecf0f1" stroke-linejoin="round" stroke-width="3.779528"/><path d="m281.299225 328.850403h-9.448822" fill="none" stroke="#ecf0f1" stroke-linejoin="round" stroke-width="3.779528"/><path d="m281.299225 338.299255h-9.448822" fill="none" stroke="#ecf0f1" stroke-linejoin="round" stroke-width="3.779528"/><path d="m196.259857 281.606323h-9.448822" fill="none" stroke="#ecf0f1" stroke-linejoin="round" stroke-width="3.779528"/><path d="m196.259857 291.055115h-9.448822" fill="none" stroke="#ecf0f1" stroke-linejoin="round" stroke-width="3.779528"/><path d="m196.259857 300.503967h-9.448822" fill="none" stroke="#ecf0f1" stroke-linejoin="round" stroke-width="3.779528"/><path d="m196.259857 309.952759h-9.448822" fill="none" stroke="#ecf0f1" stroke-linejoin="round" stroke-width="3.779528"/><path d="m196.259857 319.401611h-9.448822" fill="none" stroke="#ecf0f1" stroke-linejoin="round" stroke-width="3.779528"/><path d="m196.259857 328.850403h-9.448822" fill="none" stroke="#ecf0f1" stroke-linejoin="round" stroke-width="3.779528"/><path d="m196.259857 338.299255h-9.448822" fill="none" stroke="#ecf0f1" stroke-linejoin="round" stroke-width="3.779528"/><path d="m205.708649 262.708618v9.448853" fill="none" stroke="#ecf0f1" stroke-linejoin="round" stroke-width="3.779528"/><path d="m215.157471 262.708618v9.448853" fill="none" stroke="#ecf0f1" stroke-linejoin="round" stroke-width="3.779528"/><path d="m224.606293 262.708618v9.448853" fill="none" stroke="#ecf0f1" stroke-linejoin="round" stroke-width="3.779528"/><path d="m234.055115 262.708618v9.448853" fill="none" stroke="#ecf0f1" stroke-linejoin="round" stroke-width="3.779528"/><path d="m243.503937 262.708618v9.448853" fill="none" stroke="#ecf0f1" stroke-linejoin="round" stroke-width="3.779528"/><path d="m252.952759 262.708618v9.448853" fill="none" stroke="#ecf0f1" stroke-linejoin="round" stroke-width="3.779528"/><path d="m262.401581 262.708618v9.448853" fill="none" stroke="#ecf0f1" stroke-linejoin="round" stroke-width="3.779528"/><path d="m205.708649 347.747986v9.448852" fill="none" stroke="#ecf0f1" stroke-linejoin="round" stroke-width="3.779528"/><path d="m215.157471 347.747986v9.448852" fill="none" stroke="#ecf0f1" stroke-linejoin="round" stroke-width="3.779528"/><path d="m224.606293 347.747986v9.448852" fill="none" stroke="#ecf0f1" stroke-linejoin="round" stroke-width="3.779528"/><path d="m234.055115 347.747986v9.448852" fill="none" stroke="#ecf0f1" stroke-linejoin="round" stroke-width="3.779528"/><path d="m243.503937 347.747986v9.448852" fill="none" stroke="#ecf0f1" stroke-linejoin="round" stroke-width="3.779528"/><path d="m252.952759 347.747986v9.448852" fill="none" stroke="#ecf0f1" stroke-linejoin="round" stroke-width="3.779528"/><path d="m262.401581 347.747986v9.448852" fill="none" stroke="#ecf0f1" stroke-linejoin="round" stroke-width="3.779528"/><path d="m258.629913 677.858276v-22.519714h45.039399v45.039368h-45.039399z" fill="#2c3e50" fill-rule="evenodd"/><path d="m309.299225 660.968506h-5.629913" fill="none" stroke="#ecf0f1" stroke-linejoin="round" stroke-width="2.956115"/><path d="m309.299225 666.598389h-5.629913" fill="none" stroke="#ecf0f1" stroke-linejoin="round" stroke-width="2.956115"/><path d="m309.299225 672.228333h-5.629913" fill="none" stroke="#ecf0f1" stroke-linejoin="round" stroke-width="2.956115"/><path d="m309.299225 677.858276h-5.629913" fill="none" stroke="#ecf0f1" stroke-linejoin="round" stroke-width="2.956115"/><path d="m309.299225 683.488159h-5.629913" fill="none" stroke="#ecf0f1" stroke-linejoin="round" stroke-width="2.956115"/><path d="m309.299225 689.118103h-5.629913" fill="none" stroke="#ecf0f1" stroke-linejoin="round" stroke-width="2.956115"/><path d="m309.299225 694.748047h-5.629913" fill="none" stroke="#ecf0f1" stroke-linejoin="round" stroke-width="2.956115"/><path d="m258.629913 660.968506h-5.629913" fill="none" stroke="#ecf0f1" stroke-linejoin="round" stroke-width="2.956115"/><path d="m258.629913 666.598389h-5.629913" fill="none" stroke="#ecf0f1" stroke-linejoin="round" stroke-width="2.956115"/><path d="m258.629913 672.228333h-5.629913" fill="none" stroke="#ecf0f1" stroke-linejoin="round" stroke-width="2.956115"/><path d="m258.629913 677.858276h-5.629913" fill="none" stroke="#ecf0f1" stroke-linejoin="round" stroke-width="2.956115"/><path d="m258.629913 683.488159h-5.629913" fill="none" stroke="#ecf0f1" stroke-linejoin="round" stroke-width="2.956115"/><path d="m258.629913 689.118103h-5.629913" fill="none" stroke="#ecf0f1" stroke-linejoin="round" stroke-width="2.956115"/><path d="m258.629913 694.748047h-5.629913" fill="none" stroke="#ecf0f1" stroke-linejoin="round" stroke-width="2.956115"/><path d="m264.259827 649.708618v5.629944" fill="none" stroke="#ecf0f1" stroke-linejoin="round" stroke-width="2.956115"/><path d="m269.88974 649.708618v5.629944" fill="none" stroke="#ecf0f1" stroke-linejoin="round" stroke-width="2.956115"/><path d="m275.519684 649.708618v5.629944" fill="none" stroke="#ecf0f1" stroke-linejoin="round" stroke-width="2.956115"/><path d="m281.149597 649.708618v5.629944" fill="none" stroke="#ecf0f1" stroke-linejoin="round" stroke-width="2.956115"/><path d="m286.779541 649.708618v5.629944" fill="none" stroke="#ecf0f1" stroke-linejoin="round" stroke-width="2.956115"/><path d="m292.409454 649.708618v5.629944" fill="none" stroke="#ecf0f1" stroke-linejoin="round" stroke-width="2.956115"/><path d="m298.039368 649.708618v5.629944" fill="none" stroke="#ecf0f1" stroke-linejoin="round" stroke-width="2.956115"/><path d="m264.259827 700.37793v5.629944" fill="none" stroke="#ecf0f1" stroke-linejoin="round" stroke-width="2.956115"/><path d="m269.88974 700.37793v5.629944" fill="none" stroke="#ecf0f1" stroke-linejoin="round" stroke-width="2.956115"/><path d="m275.519684 700.37793v5.629944" fill="none" stroke="#ecf0f1" stroke-linejoin="round" stroke-width="2.956115"/><path d="m281.149597 700.37793v5.629944" fill="none" stroke="#ecf0f1" stroke-linejoin="round" stroke-width="2.956115"/><path d="m286.779541 700.37793v5.629944" fill="none" stroke="#ecf0f1" stroke-linejoin="round" stroke-width="2.956115"/><path d="m292.409454 700.37793v5.629944" fill="none" stroke="#ecf0f1" stroke-linejoin="round" stroke-width="2.956115"/><path d="m298.039368 700.37793v5.629944" fill="none" stroke="#ecf0f1" stroke-linejoin="round" stroke-width="2.956115"/><path d="m126.629921 521.858276v-22.519714h45.039375v45.039368h-45.039375z" fill="#2c3e50" fill-rule="evenodd"/><path d="m177.299225 504.968506h-5.629929" fill="none" stroke="#ecf0f1" stroke-linejoin="round" stroke-width="2.956115"/><path d="m177.299225 510.598419h-5.629929" fill="none" stroke="#ecf0f1" stroke-linejoin="round" stroke-width="2.956115"/><path d="m177.299225 516.228333h-5.629929" fill="none" stroke="#ecf0f1" stroke-linejoin="round" stroke-width="2.956115"/><path d="m177.299225 521.858276h-5.629929" fill="none" stroke="#ecf0f1" stroke-linejoin="round" stroke-width="2.956115"/><path d="m177.299225 527.488159h-5.629929" fill="none" stroke="#ecf0f1" stroke-linejoin="round" stroke-width="2.956115"/><path d="m177.299225 533.118164h-5.629929" fill="none" stroke="#ecf0f1" stroke-linejoin="round" stroke-width="2.956115"/><path d="m177.299225 538.748047h-5.629929" fill="none" stroke="#ecf0f1" stroke-linejoin="round" stroke-width="2.956115"/><path d="m126.629921 504.968506h-5.629921" fill="none" stroke="#ecf0f1" stroke-linejoin="round" stroke-width="2.956115"/><path d="m126.629921 510.598419h-5.629921" fill="none" stroke="#ecf0f1" stroke-linejoin="round" stroke-width="2.956115"/><path d="m126.629921 516.228333h-5.629921" fill="none" stroke="#ecf0f1" stroke-linejoin="round" stroke-width="2.956115"/><path d="m126.629921 521.858276h-5.629921" fill="none" stroke="#ecf0f1" stroke-linejoin="round" stroke-width="2.956115"/><path d="m126.629921 527.488159h-5.629921" fill="none" stroke="#ecf0f1" stroke-linejoin="round" stroke-width="2.956115"/><path d="m126.629921 533.118164h-5.629921" fill="none" stroke="#ecf0f1" stroke-linejoin="round" stroke-width="2.956115"/><path d="m126.629921 538.748047h-5.629921" fill="none" stroke="#ecf0f1" stroke-linejoin="round" stroke-width="2.956115"/><path d="m132.259827 493.708649v5.629913" fill="none" stroke="#ecf0f1" stroke-linejoin="round" stroke-width="2.956115"/><path d="m137.889755 493.708649v5.629913" fill="none" stroke="#ecf0f1" stroke-linejoin="round" stroke-width="2.956115"/><path d="m143.519684 493.708649v5.629913" fill="none" stroke="#ecf0f1" stroke-linejoin="round" stroke-width="2.956115"/><path d="m149.149597 493.708649v5.629913" fill="none" stroke="#ecf0f1" stroke-linejoin="round" stroke-width="2.956115"/><path d="m154.779526 493.708649v5.629913" fill="none" stroke="#ecf0f1" stroke-linejoin="round" stroke-width="2.956115"/><path d="m160.409454 493.708649v5.629913" fill="none" stroke="#ecf0f1" stroke-linejoin="round" stroke-width="2.956115"/><path d="m166.039383 493.708649v5.629913" fill="none" stroke="#ecf0f1" stroke-linejoin="round" stroke-width="2.956115"/><path d="m132.259827 544.37793v5.629944" fill="none" stroke="#ecf0f1" stroke-linejoin="round" stroke-width="2.956115"/><path d="m137.889755 544.37793v5.629944" fill="none" stroke="#ecf0f1" stroke-linejoin="round" stroke-width="2.956115"/><path d="m143.519684 544.37793v5.629944" fill="none" stroke="#ecf0f1" stroke-linejoin="round" stroke-width="2.956115"/><path d="m149.149597 544.37793v5.629944" fill="none" stroke="#ecf0f1" stroke-linejoin="round" stroke-width="2.956115"/><path d="m154.779526 544.37793v5.629944" fill="none" stroke="#ecf0f1" stroke-linejoin="round" stroke-width="2.956115"/><path d="m160.409454 544.37793v5.629944" fill="none" stroke="#ecf0f1" stroke-linejoin="round" stroke-width="2.956115"/><path d="m166.039383 544.37793v5.629944" fill="none" stroke="#ecf0f1" stroke-linejoin="round" stroke-width="2.956115"/><path d="m353.088593 887.715515v-16.715515h33.431121v33.431152h-33.431121z" fill="#bdc3c7" fill-rule="evenodd"/><path d="m353.088593 871-11.143708 11.143677v33.431152h33.431122l11.143707-11.143677h-33.431121z" fill="#95a5a6" fill-rule="evenodd"/><path d="m460.196838 842.165344c0 16.062989-12.283447 28.346497-28.346435 28.346497s-28.346436-12.283508-28.346436-28.346497c0-16.062988 12.283448-28.346435 28.346436-28.346435s28.346435 12.283447 28.346435 28.346435z" fill="#95a5a6" fill-rule="evenodd"/><path d="m466.62207 835.740173c0 16.062989-12.283508 28.346436-28.346496 28.346436-16.062989 0-28.346436-12.283447-28.346436-28.346436 0-16.062988 12.283447-28.346496 28.346436-28.346496 16.062988 0 28.346496 12.283508 28.346496 28.346496z" fill="#bdc3c7" fill-rule="evenodd"/><path d="m240.157471 108.527588v-85.039368h132.283477v170.078736h-132.283477z" fill="#bdc3c7" fill-rule="evenodd"/><path d="m240.157471 23.48822-37.795258 37.795227v170.078797h132.283447l37.795288-37.795288h-132.283477z" fill="#95a5a6" fill-rule="evenodd"/><path d="m334.64566 42.385803h18.897644v56.692932h-37.795288v-56.692932z" fill="#fff" fill-rule="evenodd"/><path d="m315.748016 99.078735h37.8331l-9.486634-37.833068h-18.897644z" fill="#bdc3c7" fill-rule="evenodd"/><path d="m315.748016 99.078735h37.8331l-9.486634-37.833068h-18.897644z" fill="none" stroke="#bdc3c7" stroke-linejoin="round" stroke-width="1.066658"/><path d="m277.952759 42.385803h18.897644v56.692932h-37.795288v-56.692932z" fill="#fff" fill-rule="evenodd"/><path d="m259.055115 99.078735h37.833069l-9.486603-37.833068h-18.897644z" fill="#bdc3c7" fill-rule="evenodd"/><path d="m259.055115 99.078735h37.833069l-9.486603-37.833068h-18.897644z" fill="none" stroke="#bdc3c7" stroke-linejoin="round" stroke-width="1.066658"/><path d="m66.157471 108.527588v-85.039368h132.283477v170.078736h-132.283477z" fill="#bdc3c7" fill-rule="evenodd"/><path d="m66.157471 23.48822-37.795258 37.795227v170.078797h132.283447l37.795288-37.795288h-132.283477z" fill="#95a5a6" fill-rule="evenodd"/><path d="m160.64566 42.385803h18.897644v56.692932h-37.795288v-56.692932z" fill="#fff" fill-rule="evenodd"/><path d="m141.748016 99.078735h37.8331l-9.486634-37.833068h-18.897644z" fill="#bdc3c7" fill-rule="evenodd"/><path d="m141.748016 99.078735h37.8331l-9.486634-37.833068h-18.897644z" fill="none" stroke="#bdc3c7" stroke-linejoin="round" stroke-width="1.066658"/><path d="m103.952759 42.385803h18.897644v56.692932h-37.795288v-56.692932z" fill="#fff" fill-rule="evenodd"/><path d="m85.055115 99.078735h37.833069l-9.486603-37.833068h-18.897644z" fill="#bdc3c7" fill-rule="evenodd"/><path d="m85.055115 99.078735h37.833069l-9.486603-37.833068h-18.897644z" fill="none" stroke="#bdc3c7" stroke-linejoin="round" stroke-width="1.066658"/><path d="m262.061432 415.779541c0 2.683472-2.040955 4.724426-4.724426 4.724426-2.683472 0-4.724396-2.040954-4.724396-4.724426s2.040924-4.724426 4.724396-4.724426c2.683471 0 4.724426 2.040954 4.724426 4.724426z" fill="#2c3e50" fill-rule="evenodd"/><path d="m262.061432 415.779541c0 2.683472-2.040955 4.724426-4.724426 4.724426-2.683472 0-4.724396-2.040954-4.724396-4.724426s2.040924-4.724426 4.724396-4.724426c2.683471 0 4.724426 2.040954 4.724426 4.724426z" fill="none" stroke="#f1c40f" stroke-linejoin="round" stroke-width="3.779528"/><path d="m242.86142 415.779541c0 2.683472-2.040955 4.724426-4.724427 4.724426-2.683441 0-4.724395-2.040954-4.724395-4.724426s2.040954-4.724426 4.724395-4.724426c2.683472 0 4.724427 2.040954 4.724427 4.724426z" fill="#2c3e50" fill-rule="evenodd"/><path d="m242.86142 415.779541c0 2.683472-2.040955 4.724426-4.724427 4.724426-2.683441 0-4.724395-2.040954-4.724395-4.724426s2.040954-4.724426 4.724395-4.724426c2.683472 0 4.724427 2.040954 4.724427 4.724426z" fill="none" stroke="#f1c40f" stroke-linejoin="round" stroke-width="3.779528"/><path d="m223.623627 415.779541c0 2.683472-2.040955 4.724426-4.724427 4.724426-2.683441 0-4.724395-2.040954-4.724395-4.724426s2.040954-4.724426 4.724395-4.724426c2.683472 0 4.724427 2.040954 4.724427 4.724426z" fill="#2c3e50" fill-rule="evenodd"/><path d="m223.623627 415.779541c0 2.683472-2.040955 4.724426-4.724427 4.724426-2.683441 0-4.724395-2.040954-4.724395-4.724426s2.040954-4.724426 4.724395-4.724426c2.683472 0 4.724427 2.040954 4.724427 4.724426z" fill="none" stroke="#f1c40f" stroke-linejoin="round" stroke-width="3.779528"/><path d="m204.423615 415.779541c0 2.683472-2.040925 4.724426-4.724396 4.724426-2.683472 0-4.724427-2.040954-4.724427-4.724426s2.040955-4.724426 4.724427-4.724426c2.683471 0 4.724396 2.040954 4.724396 4.724426z" fill="#2c3e50" fill-rule="evenodd"/><path d="m204.423615 415.779541c0 2.683472-2.040925 4.724426-4.724396 4.724426-2.683472 0-4.724427-2.040954-4.724427-4.724426s2.040955-4.724426 4.724427-4.724426c2.683471 0 4.724396 2.040954 4.724396 4.724426z" fill="none" stroke="#f1c40f" stroke-linejoin="round" stroke-width="3.779528"/><path d="m185.185822 415.779541c0 2.683472-2.040955 4.724426-4.724396 4.724426-2.683472 0-4.724426-2.040954-4.724426-4.724426s2.040954-4.724426 4.724426-4.724426c2.683441 0 4.724396 2.040954 4.724396 4.724426z" fill="#2c3e50" fill-rule="evenodd"/><path d="m185.185822 415.779541c0 2.683472-2.040955 4.724426-4.724396 4.724426-2.683472 0-4.724426-2.040954-4.724426-4.724426s2.040954-4.724426 4.724426-4.724426c2.683441 0 4.724396 2.040954 4.724396 4.724426z" fill="none" stroke="#f1c40f" stroke-linejoin="round" stroke-width="3.779528"/><path d="m167.913391 415.779541c0 2.683472-2.040954 4.724426-4.724426 4.724426-2.683441 0-4.724396-2.040954-4.724396-4.724426s2.040955-4.724426 4.724396-4.724426c2.683472 0 4.724426 2.040954 4.724426 4.724426z" fill="#2c3e50" fill-rule="evenodd"/><path d="m167.913391 415.779541c0 2.683472-2.040954 4.724426-4.724426 4.724426-2.683441 0-4.724396-2.040954-4.724396-4.724426s2.040955-4.724426 4.724396-4.724426c2.683472 0 4.724426 2.040954 4.724426 4.724426z" fill="none" stroke="#f1c40f" stroke-linejoin="round" stroke-width="3.779528"/><path d="m271.850403 415.779541v-7.559082h15.118103v15.118164h-15.118103z" fill="#f1c40f" fill-rule="evenodd"/><path d="m284.13385 415.779541c0 2.683472-2.040924 4.724426-4.724396 4.724426-2.683471 0-4.724426-2.040954-4.724426-4.724426s2.040955-4.724426 4.724426-4.724426c2.683472 0 4.724396 2.040954 4.724396 4.724426z" fill="#2c3e50" fill-rule="evenodd"/><path d="m284.13385 415.779541c0 2.683472-2.040924 4.724426-4.724396 4.724426-2.683471 0-4.724426-2.040954-4.724426-4.724426s2.040955-4.724426 4.724426-4.724426c2.683472 0 4.724396 2.040954 4.724396 4.724426z" fill="none" stroke="#f1c40f" stroke-linejoin="round" stroke-width="3.779528"/><path d="m148.977966 415.817322c0 2.683471-2.040954 4.724426-4.724426 4.724426s-4.724396-2.040955-4.724396-4.724426c0-2.683472 2.040924-4.724365 4.724396-4.724365s4.724426 2.040893 4.724426 4.724365z" fill="#2c3e50" fill-rule="evenodd"/><path d="m148.977966 415.817322c0 2.683471-2.040954 4.724365-4.724426 4.724365s-4.724396-2.040894-4.724396-4.724365c0-2.683472 2.040924-4.724426 4.724396-4.724426s4.724426 2.040954 4.724426 4.724426z" fill="none" stroke="#f1c40f" stroke-linejoin="round" stroke-width="3.779528"/><path d="m479.616425 467.496033v-44.15741h75.698516v88.314941h-75.698516z" fill="#bdc3c7" fill-rule="evenodd"/><path d="m479.616425 423.338623-12.616425 12.616364v88.315033h75.698486l12.616455-12.616456h-75.698516z" fill="#95a5a6" fill-rule="evenodd"/><path d="m517.465698 448.571411v12.641663l25.258057-3.179352v-6.308167z" fill="#bdc3c7" fill-rule="evenodd"/><path d="m517.465698 448.571411v12.641663l25.258057-3.179352v-6.308167z" fill="none" stroke="#95a5a6" stroke-linejoin="round" stroke-width="2.523284"/><path d="m517.465698 473.804291v12.641632l25.258057-3.179352v-6.308166z" fill="#bdc3c7" fill-rule="evenodd"/><path d="m517.465698 473.804291v12.641632l25.258057-3.179352v-6.308166z" fill="none" stroke="#95a5a6" stroke-linejoin="round" stroke-width="2.523284"/><path d="m479.616425 631.496033v-44.15741h75.698516v88.314941h-75.698516z" fill="#bdc3c7" fill-rule="evenodd"/><path d="m479.616425 587.338623-12.616425 12.616333v88.315002h75.698486l12.616455-12.616394h-75.698516z" fill="#95a5a6" fill-rule="evenodd"/><path d="m517.465698 612.571411v12.641663l25.258057-3.179383v-6.308105z" fill="#bdc3c7" fill-rule="evenodd"/><path d="m517.465698 612.571411v12.641663l25.258057-3.179383v-6.308105z" fill="none" stroke="#95a5a6" stroke-linejoin="round" stroke-width="2.523284"/><path d="m517.465698 637.804321v12.641602l25.258057-3.179321v-6.308228z" fill="#bdc3c7" fill-rule="evenodd"/><path d="m517.465698 637.804321v12.641602l25.258057-3.179321v-6.308228z" fill="none" stroke="#95a5a6" stroke-linejoin="round" stroke-width="2.523284"/><path d="m479.616425 851.496033v-44.15741h75.698516v88.314941h-75.698516z" fill="#bdc3c7" fill-rule="evenodd"/><path d="m479.616425 807.338623-12.616425 12.616394v88.314941h75.698486l12.616455-12.616394h-75.698516z" fill="#95a5a6" fill-rule="evenodd"/><path d="m517.465698 832.571411v12.641663l25.258057-3.179322v-6.308227z" fill="#bdc3c7" fill-rule="evenodd"/><path d="m517.465698 832.571411v12.641663l25.258057-3.179322v-6.308227z" fill="none" stroke="#95a5a6" stroke-linejoin="round" stroke-width="2.523284"/><path d="m517.465698 857.80426v12.641663l25.258057-3.179321v-6.308228z" fill="#bdc3c7" fill-rule="evenodd"/><path d="m517.465698 857.80426v12.641663l25.258057-3.179321v-6.308228z" fill="none" stroke="#95a5a6" stroke-linejoin="round" stroke-width="2.523284"/><path d="m158.464569 699.24408h-18.897644" fill="none" stroke="#ecf0f1" stroke-linejoin="round" stroke-width="7.559055"/><path d="m158.464569 716.251953h-18.897644" fill="none" stroke="#ecf0f1" stroke-linejoin="round" stroke-width="7.559055"/><path d="m120.669296 716.251953v-28.346435h18.897629v56.692932h-18.897629z" fill="#2c3e50" fill-rule="evenodd"/><path d="m158.464569 733.259827h-18.897644" fill="none" stroke="#ecf0f1" stroke-linejoin="round" stroke-width="7.559055"/><path d="m113.110229 697.354309v37.795288" fill="none" stroke="#ecf0f1" stroke-linejoin="round" stroke-width="15.118111"/><path d="m419.488159 740.251953v-28.346435h37.795288v56.692932h-37.795288z" fill="#2c3e50" fill-rule="evenodd"/><path d="m411.929138 721.354309v37.795288" fill="none" stroke="#ecf0f1" stroke-linejoin="round" stroke-width="15.118111"/><path d="m476.181091 721.354309h-18.897644" fill="none" stroke="#ecf0f1" stroke-linejoin="round" stroke-width="7.559055"/><path d="m466.7323 740.251953h-9.448853" fill="none" stroke="#ecf0f1" stroke-linejoin="round" stroke-width="7.559055"/><path d="m476.181091 759.149597h-18.897644" fill="none" stroke="#ecf0f1" stroke-linejoin="round" stroke-width="7.559055"/><path d="m120.669296 631.212585v-18.897644h18.897629v37.795288h-18.897629z" fill="#2c3e50" fill-rule="evenodd"/><path d="m149.015747 617.984253h-9.448822" fill="none" stroke="#ecf0f1" stroke-linejoin="round" stroke-width="7.559055"/><path d="m149.015747 631.212585h-9.448822" fill="none" stroke="#ecf0f1" stroke-linejoin="round" stroke-width="7.559055"/><path d="m149.015747 644.440918h-9.448822" fill="none" stroke="#ecf0f1" stroke-linejoin="round" stroke-width="7.559055"/></svg>