<svg height="512" viewBox="0 0 512 512" width="512" xmlns="http://www.w3.org/2000/svg"><g fill="#fff"><path d="m267.232422 431.458984c-6.131287-.134216-12.943146-12.868469-37.841797-39.171875l-41.091797-43.410156 34.91211-45.433594-40.027344 40.029297-51.951172-54.880859 29.542969-32.824219-33.884766 28.238281-23.205078-24.513671 50.279297-41.185547-58.017578 33.009765-35.957032-37.984375c-13.499351-14.260925-20.131164-21.932739-1.515625-28.28125l94.509766-32.230468c38.33342-13.072876 24.858643-23.162598 46.640625 4.529296l125.822266 159.958985c31.594574 40.166534 21.135345 21.097564-2.09375 49.46875l-35.978516 43.943359c-11.289948 13.789154-15.523132 20.839417-20.142578 20.738281z" fill-rule="evenodd"/><path d="m264.980286 123.688232c-13.088578-16.639679-40.513031-16.844909-61.479142-.479095l-11.766372 9.184601 163.190521 207.466125 11.766418-9.184631c20.966095-16.365784 27.32486-42.941589 14.236268-59.581299l-115.94455-147.401703z"/><path d="m459.894196 90.494385c8.143188 10.352478 6.319915 25.320984-4.072419 33.433075l-134.829834 105.24588c-10.392334 8.11206-25.418304 6.295807-33.561462-4.056702-8.143189-10.352539-6.319916-25.321014 4.072418-33.433075l134.829834-105.24588c10.392334-8.112091 25.418305-6.295837 33.561463 4.056702z"/><g fill-rule="evenodd"><path d="m135.637817 441.729187 51.589783 15.952881 17.134583-55.411255-51.589783-15.952881z"/><path d="m84 371h38.172417v-41h-38.172417z"/><path d="m121.597664 445.862152 9.910103-12.561432-47.105431-37.162872-9.910095 12.561432z"/></g><path d="m65.261078 446.028534c-11.197853 8.740875-25.609997 9.04422-32.190857.677887-6.580856-8.366333-2.838379-22.234161 8.359467-30.975006 11.197856-8.740845 25.61-9.04419 32.190849-.677887 6.580864 8.366333 2.838379 22.234161-8.359459 30.975006z"/><path d="m65.811844 295.806763c-5.878914 4.588989-16.156929 1.300659-22.957203-7.344635-6.800259-8.645233-7.547112-19.373474-1.668446-23.96225 5.878678-4.588806 16.156948-1.300629 22.957199 7.344604 6.800286 8.645264 7.547127 19.373475 1.66845 23.962281z"/></g></svg>