<svg height="512" viewBox="0 0 512 512" width="512" xmlns="http://www.w3.org/2000/svg"><g fill="#fff"><path d="m273.78125 396.771484c-5.401184-.118255-11.404083-11.336547-33.337891-34.507812l-36.199218-38.240234 30.755859-40.023438-35.261719 35.261719-45.763672-48.34375 26.025391-28.917969-29.851562 24.875-20.441407-21.59375 44.292969-36.28125-51.109375 29.080078-31.675781-33.46289c-11.891899-12.562775-17.732857-19.31955-1.333985-24.91211l83.25586-28.392578c33.7677-11.515808 21.900345-20.403198 41.085937 3.988281l110.839844 140.91211c27.832397 35.383667 18.619324 18.587219-1.84375 43.580078l-31.695312 38.708984c-9.945588 12.147217-13.672791 18.358612-17.742188 18.269531z" fill-rule="evenodd"/><path d="m271.795959 125.648834c-11.530029-14.658294-35.688888-14.839081-54.158432-.422058l-10.36528 8.090943 143.758423 182.76181 10.365296-8.090943c18.469543-14.416992 24.071136-37.828277 12.541076-52.486572l-102.138305-129.84967z"/><path d="m443.500275 96.407562c7.173523 9.119751 5.567352 22.305878-3.587494 29.451996l-118.774811 92.713593c-9.154846 7.146118-22.391602 5.546142-29.565094-3.573639-7.173523-9.119782-5.567352-22.305878 3.587494-29.451996l118.774811-92.713593c9.154846-7.146118 22.391571-5.546142 29.565094 3.573639z"/></g></svg>