<svg height="68" viewBox="0 0 100 68" width="100" xmlns="http://www.w3.org/2000/svg"><g fill="#fff" stroke="#fff" stroke-linecap="round" stroke-width="4.931648"><path d="m54 34.133785c0 2.36879-1.916779 4.291287-4.291286 4.291287-2.368794 0-4.291291-1.922497-4.291291-4.291287 0-2.368789 1.922497-4.291286 4.291291-4.291286 2.374507 0 4.291286 1.922497 4.291286 4.291286z"/><g fill-rule="evenodd"><path d="m60.673771 24.599617s3.150902 3.22831 3.150902 9.367523m-3.150902 9.328804s3.150902-3.228306 3.150902-9.367515"/><path d="m71.427063 15.247589s6.301781 6.464359 6.301781 18.742775m-6.301781 18.657616s6.301781-6.456627 6.301781-18.735039"/><path d="m83.148064 5.903305s9.460418 9.684921 9.460418 28.102547m-9.460418 27.994148s9.460418-9.692657 9.460418-28.110283"/><path d="m37.224026 24.599617s-3.150894 3.22831-3.150894 9.367523m3.150894 9.328804s-3.150894-3.228306-3.150894-9.367515"/><path d="m26.803631 15.247589s-6.309519 6.464359-6.309519 18.742775m6.309519 18.657616s-6.309519-6.456627-6.309519-18.735039"/><path d="m15.074888 5.903305s-9.452677 9.684921-9.452677 28.102547m9.452677 27.994148s-9.452677-9.692657-9.452677-28.110283"/></g></g></svg>