<svg height="100" viewBox="0 0 100 100" width="100" xmlns="http://www.w3.org/2000/svg"><g fill="#fff"><path d="m24 39s0-5 0-9c0-9.856033 6.559731-24.976128 25.559322-25 18.688778-.023483 25.440678 15.120338 25.440678 25v9h-8s0-4 0-9c0-7.998901-3.715656-17.931892-17-18-13.038021-.066849-18 9.978676-18 18v9z"/><path d="m82 41-.062355 41.38797-.000443.001625c0 13.064606-10.839012 12.831406-25.302997 12.52021-2.306133-.049614-4.704415-.101211-7.165608-.101211-2.141204 0-4.233898.032669-6.259155.064293-14.903255.232681-26.154516.40834-26.209442-12.911873v-40.961014zm-38.913383 19.955009c0 2.367505 1.500064 4.41996 3.690055 5.352753l-2.361633 14.643212h10.958328l-2.530311-15.003479c1.805671-1.039406 3.019127-2.887612 3.019127-4.992486 0-3.248729-2.87275-5.867534-6.401852-5.867534h-.000134c-3.528923 0-6.37358 2.618881-6.37358 5.867534z"/></g></svg>