<svg height="1200" viewBox="0 0 1200 1200" width="1200" xmlns="http://www.w3.org/2000/svg"><path d="m1196.099976 600.900024c-.299927 324.699952-262.399964 590.099976-590.299988 589.900025-325.699982-.200073-589.599987-263.100037-589.499989-590.200073.100001-327.5 265.099995-589.5 589.999989-589.599976 325.600036-.099976 589.799988 264.299988 589.799988 589.900024zm-488 129.199952c0-72.699952-.099976-145.299988.100036-218 .099976-27.5-9.700012-50.799988-30-68.899964-32-28.600036-69.200012-34.600036-109.100036-20.5-38.099976 13.5-63.599976 50.099976-63.399964 91.5.799988 144.799988.399994 289.599976.199982 434.399964 0 81.800048 70.100006 95.599975 103.600006 95.5 50.400024-.199952 99.900024-40.799988 98.900024-99.099976-1.300048-71.599976-.300048-143.299988-.300048-214.900024zm6.900024-464.599976c-.099976-60.400024-48.299988-108.5-108.799988-108.5-60.600036 0-109 48.5-108.900024 109.099976.100006 59.900024 49 108.700012 109 108.700012 60.400024 0 108.700012-48.599976 108.700012-109.299988z" fill="#fff"/></svg>