<svg height="418" viewBox="0 0 412 418" width="412" xmlns="http://www.w3.org/2000/svg"><g fill="none" stroke="#fff" stroke-linecap="round" stroke-linejoin="round"><path d="m78.132919 264.997894 78.267594 75.78534c100.609436-84.327942 228.596832-157.776474 235.587616-321.612702-163.52594 12.265869-236.06041 140.323578-313.85521 245.827362z" stroke-width="20.164787"/><path d="m272.684296 193.874908c-12.443573 12.781083-33.069657 13.224564-46.069657.990525-13-12.234024-13.451065-32.512787-1.007492-45.293869 12.443573-12.781098 33.069672-13.224549 46.069672-.99054 13 12.234039 13.45105 32.512802 1.007477 45.293884z" stroke-width="12.133864"/><path d="m86.534912 257.436127-66.453121 23.048248c14.372497-42.612228 37.116058-97.697815 67.807857-116.517166 20.165604-12.365036 68.307419-3.152908 68.307419-3.152908z" stroke-width="20.164787"/><path d="m167.188644 330.75705-20.895233 67.161193c42.127045-15.737915 96.451248-40.244415 114.272049-71.526702 11.708801-20.553498.95044-68.373475.95044-68.373475z" stroke-width="20.164787"/><g stroke-width="12.133864"><path d="m339.060059 124.978546c-8.048645 8.272003-19.975159 11.692932-31.28537 8.973694-11.310211-2.719208-20.285065-11.165283-23.542664-22.155548-3.257629-10.990234-.302856-22.854279 7.750885-31.121491 8.048645-8.271972 19.975159-11.692901 31.28537-8.973663 11.310211 2.719208 20.285065 11.165283 23.542694 22.155518 3.257599 10.990265.302826 22.854309-7.750915 31.12149z"/><path d="m202.947739 261.931061c-8.04834 8.273285-19.97551 11.695251-31.286545 8.976196-11.31102-2.719025-20.28656-11.16571-23.544006-22.156784-3.257462-10.991074-.301667-22.855789 7.753417-31.122757 8.04834-8.2733 19.97551-11.695236 31.28653-8.976211 11.311035 2.719039 20.28656 11.165725 23.544022 22.156799 3.257446 10.991073.301666 22.855789-7.753418 31.122757z"/></g></g></svg>