<svg height="418" viewBox="0 0 412 418" width="412" xmlns="http://www.w3.org/2000/svg"><g stroke="#fff" stroke-linecap="round" stroke-linejoin="round" stroke-width="20.164787"><path d="m86.534912 257.436127-66.453121 23.048248c14.372497-42.612228 37.116058-97.697815 67.807857-116.517166 20.165604-12.365036 68.307419-3.152908 68.307419-3.152908z" fill="none"/><path d="m167.188644 330.75705-20.895233 67.161193c42.127045-15.737915 96.451248-40.244415 114.272049-71.526702 11.708801-20.553498.95044-68.373475.95044-68.373475z" fill="none"/><path d="m156.400391 340.783203-78.267578-75.785156c77.79457-105.50351 150.330032-233.562256 313.855468-245.828125-6.990783 163.835724-134.978729 237.285614-235.58789 321.613281zm22.724609-68.958984c8.879288.073486 17.5345-3.429077 23.822266-9.892578 8.055069-8.266953 11.011352-20.131989 7.753906-31.123047-3.257462-10.991059-12.233902-19.43721-23.544922-22.15625-11.311005-2.719025-23.236832.701324-31.285156 8.974609-8.055069 8.266953-11.011368 20.131989-7.753906 31.123047 3.257446 10.991058 12.233917 19.439178 23.544921 22.158203 2.474289.594788 4.976685.895447 7.462891.916016zm69.951172-68.066406c8.599975.016723 17.191223-3.292573 23.607422-9.882813 12.443573-12.781036 11.99414-33.060883-1.00586-45.294922-13-12.234009-33.626785-11.78891-46.070312.992188-12.443527 12.781036-11.992142 33.05899 1.007812 45.292968 6.296875 5.925858 14.382203 8.876862 22.460938 8.892579zm66.162109-68.888672c8.878723.073913 17.534271-3.428131 23.822266-9.890625 8.053741-8.267182 11.007599-20.130829 7.75-31.121094-3.25763-10.990234-12.232758-19.437042-23.542969-22.15625-11.310211-2.719238-23.236511.702637-31.285156 8.974609-8.053742 8.267212-11.00763 20.13086-7.75 31.121094 3.257599 10.990265 12.232757 19.437042 23.542969 22.15625 2.474121.594818 4.976837.895325 7.46289.916016z" fill="#fff" fill-rule="evenodd"/></g></svg>