<svg height="300" viewBox="0 0 100 300" width="100" xmlns="http://www.w3.org/2000/svg"><path d="m46 242h12v-9c0-1.242645-1.007362-2.25-2.25-2.25h-7.5c-1.242638 0-2.25 1.007355-2.25 2.25z" fill="#d1d1d1" fill-rule="evenodd"/><path d="m48 248h8v-6h-8zm2-1h1v-2h-1zm4 0h-1v-2h1z" fill="#d1d1d1" fill-opacity=".797584" fill-rule="evenodd"/><path d="m50 247h1v-2h-1z" fill="#fff" fill-opacity=".797584" fill-rule="evenodd" opacity=".599425"/><path d="m53 247h1v-2h-1z" fill="#fff" fill-opacity=".797584" fill-rule="evenodd" opacity=".599425"/><path d="m29.384705 6h42.249328c1.851364 0 3.365967 1.505066 3.365967 3.344604v79.310883c0 1.839554-1.514603 3.344513-3.365967 3.344513h-42.249328c-1.851359 0-3.36596-1.504959-3.36596-3.344513v-79.310883c0-1.839538 1.514601-3.344604 3.36596-3.344604zm2.027954 2.072632h38.193992c1.81929 0 3.307801 1.478973 3.307801 3.286712v75.281403c0 1.807694-1.488511 3.286713-3.307801 3.286713h-38.193992c-1.819302 0-3.307804-1.479019-3.307804-3.286713v-75.281403c0-1.807739 1.488502-3.286712 3.307804-3.286712z" fill="#fff" fill-rule="evenodd"/><path d="m49.957733 31.288879v36.518692" fill="none" stroke="#fff" stroke-linejoin="round" stroke-width="4.627057"/><path d="m49.843765 59.720413c-12.701187-1.701294-11.567257-15.65039-11.567257-15.65039" fill="none" stroke="#fff" stroke-linejoin="round" stroke-width="4.257124"/><path d="m50.184029 54.232773c12.248596-2.268677 11.001522-16.785141 11.001522-16.785141" fill="none" stroke="#fff" stroke-linejoin="round" stroke-width="4.257124"/><g fill-rule="evenodd"><path d="m46.95195 31.515778h6.010746l-2.948387-3.515778z" stroke="#fff" stroke-linecap="round" stroke-linejoin="round" stroke-width="4.257124"/><path d="m52.112446 67.466904c0 1.126556-.915013 2.04158-2.041565 2.04158-1.126553 0-2.041569-.915024-2.041569-2.04158 0-1.126541.915016-2.041565 2.041569-2.041565 1.126552 0 2.041565.915024 2.041565 2.041565z" stroke="#fff" stroke-linecap="round" stroke-linejoin="round" stroke-width="4.257124"/><path d="m40.431225 44.444717c0 1.126557-.915016 2.041581-2.041569 2.041581s-2.041569-.915024-2.041569-2.041581c0-1.127365.915016-2.041549 2.041569-2.041549s2.041569.914184 2.041569 2.041549z" stroke="#fff" stroke-linecap="round" stroke-linejoin="round" stroke-width="4.257124"/><path d="m60.035217 36.165283c-.493583 0-.891239.397675-.891239.891266v2.073547c0 .493561.397656.891236.891239.891236h2.073544c.493584 0 .891239-.397675.891239-.891236v-2.073547c0-.493591-.397655-.891266-.891239-.891266z" stroke="#fff" stroke-linecap="round" stroke-linejoin="round" stroke-width="4.257124"/><path d="m54 112h-5v5h5z" fill="#b5b4b7"/><path d="m55 117h-7v15h7z" fill="#fff"/><path d="m53 132c0 7.731964-6.268036 14-14 14v-2.713181c6.233521 0 11.286819-5.053298 11.286819-11.286819z" fill="#d1d1d1"/><path d="m53 182c0 7.731964-6.268036 14-14 14v-2.713181c6.233521 0 11.286819-5.053298 11.286819-11.286819z" fill="#d1d1d1"/><path d="m24.994539 206.994537c.006035-7.731964 6.278961-13.995102 14.010924-13.989074l-.002118 2.71318c-6.23352-.004867-11.290761 5.04448-11.295627 11.278z" fill="#d1d1d1"/><path d="m25 157c0-7.731964 6.268036-14 14-14v2.713181c-6.233521 0-11.286819 5.053298-11.286819 11.286819z" fill="#d1d1d1"/><path d="m39 171c-7.731964 0-14-6.268036-14-14h2.713181c0 6.233521 5.053298 11.286819 11.286819 11.286819z" fill="#d1d1d1"/><path d="m39.012291 167.987732c7.731953.013565 13.988983 6.292587 13.975418 14.024536l-2.713177-.004761c.010937-6.233505-5.033489-11.295669-11.267002-11.306595z" fill="#d1d1d1"/><path d="m39 221c-7.731964 0-14-6.268036-14-14h2.713181c0 6.233521 5.053298 11.286819 11.286819 11.286819z" fill="#d1d1d1"/><path d="m39.012291 217.987732c7.731953.013565 13.988983 6.292587 13.975418 14.024536l-2.713177-.004761c.010937-6.233505-5.033489-11.295669-11.267002-11.306595z" fill="#d1d1d1"/></g></svg>