<svg height="139" viewBox="0 0 100 139" width="100" xmlns="http://www.w3.org/2000/svg"><path d="m73.993309 129.993469c.75.000763 10.499992.011017 11.999992.012573l.009453-8.999969c.001305-1.242645-1.004997-2.251068-2.247635-2.25238l-7.5-.007874c-1.242637-.001297-2.251053 1.005005-2.252357 2.24765z" fill="#fff" fill-rule="evenodd"/><path d="m75.987007 135.995544 8 .008393.006294-5.99997-7.999992-.008423zm6.001053-.993682-1-.001069.002098-2 1 .001069zm-4-.004212 1 .001038.002098-2-1-.001038z" fill="#d1d1d1" fill-opacity=".797584" fill-rule="evenodd"/><path d="m77.98806 134.99765 1 .001038.002098-2-1-.001038z" fill="#fff" fill-opacity=".797584" fill-rule="evenodd" opacity=".599425"/><path d="m80.98806 135.000793 1 .001069.002098-2-1-.001069z" fill="#fff" fill-opacity=".797584" fill-rule="evenodd" opacity=".599425"/><path d="m30.321882 58.567657c-12.239607-1.63948-11.146887-15.081642-11.146887-15.081642" fill="none" stroke="#fff" stroke-linejoin="round" stroke-width="3"/><path d="m30.649778 53.279442c11.803465-2.186234 10.60171-16.175148 10.60171-16.175148" fill="none" stroke="#fff" stroke-linejoin="round" stroke-width="3"/><g fill-rule="evenodd"><path d="m27.53516 31.387993h5.792305l-2.84124-3.387993z" stroke="#fff" stroke-linecap="round" stroke-linejoin="round" stroke-width="4.102414"/><path d="m32.508118 66.032623c0 1.08561-.881762 1.967377-1.967375 1.967377-1.085611 0-1.967375-.881767-1.967375-1.967377 0-1.085609.881764-1.967376 1.967375-1.967376 1.085613 0 1.967375.881767 1.967375 1.967376z" stroke="#fff" stroke-linecap="round" stroke-linejoin="round" stroke-width="4.102414"/><path d="m21.251406 43.847099c0 1.08561-.881762 1.967377-1.967375 1.967377s-1.967375-.881767-1.967375-1.967377c0-1.086403.881762-1.967376 1.967375-1.967376s1.967375.880973 1.967375 1.967376z" stroke="#fff" stroke-linecap="round" stroke-linejoin="round" stroke-width="4.102414"/><path d="m38 43h7v-7h-7z" fill="#fff"/><path d="m29 63h3v-29h-3z" fill="#fff"/><path d="m27.994539 87h5.000002v5h-5.000002z" fill="#b5b4b7"/><path d="m26.994539 92h7.000002v15h-7.000002z" fill="#fff"/><path d="m28.994539 119c0 7.731964 6.268038 14 14.000002 14v-2.713181c-6.23352 0-11.286821-5.053298-11.286821-11.286819z" fill="#d1d1d1"/><path d="m42.994541 133c7.731964 0 14-6.268036 14-14h-2.71318c0 6.233521-5.053299 11.286819-11.28682 11.286819z" fill="#d1d1d1"/><path d="m82 118.994537c-.006035-7.731964-6.278961-13.995102-14.010925-13.989074l.002121 2.71318c6.23352-.00486 11.290764 5.044487 11.295623 11.278008z" fill="#d1d1d1"/><path d="m67.982246 104.987732c-7.731948.013565-13.988979 6.292587-13.975414 14.024536l2.713177-.004761c-.010937-6.233505 5.033489-11.295669 11.266998-11.306595z" fill="#d1d1d1"/><path d="m29 119 2 6 1-18h-3z" fill="#d1d1d1"/><path d="m17 92c-6.075132 0-11-4.924866-11-11v-64c0-6.075134 4.924868-11 11-11h27c6.07513 0 11 4.924866 11 11v64c0 6.075134-4.92487 11-11 11zm4-5c-5.522848 0-10-4.477158-10-10v-56c0-5.52285 4.477152-10 10-10h19c5.522846 0 10 4.47715 10 10v56c0 5.522842-4.477154 10-10 10z" fill="#fff"/></g></svg>