<svg height="200" viewBox="0 0 200 200" width="200" xmlns="http://www.w3.org/2000/svg" xmlns:xlink="http://www.w3.org/1999/xlink"><linearGradient id="a" gradientUnits="userSpaceOnUse" x1="60.292598" x2="71.437005" y1="171.030717" y2="171.030717"><stop offset=".00001" stop-color="#fff" stop-opacity="0"/><stop offset=".5" stop-color="#fff"/><stop offset="1" stop-color="#999"/></linearGradient><filter id="b" color-interpolation-filters="sRGB" filterUnits="userSpaceOnUse" height="200" width="200" x="0" y="0"><feGaussianBlur stdDeviation=".199704"/></filter><filter id="c" color-interpolation-filters="sRGB" filterUnits="userSpaceOnUse" height="200" width="200" x="0" y="0"><feGaussianBlur stdDeviation=".077481"/></filter><path d="m77.185875 5.495728 1.713913 10.225128c-6.636353 1.374771-13.16655 4.070343-19.224056 8.167816-24.816529 16.786743-32.318041 50.692779-16.752304 75.728844l-8.587834 5.808235c-18.540402-29.820885-9.607254-70.202835 19.952496-90.196076 7.214824-4.880493 14.993152-8.094894 22.897182-9.732544z" fill="#4a0" fill-rule="evenodd" stroke="#f3f3f3" stroke-linejoin="round" stroke-width=".116195"/><path d="m80.544594 25.684555 1.17189 6.991287c-4.537552.93982-9.002579 2.783127-13.14444 5.584595-16.968139 11.47789-22.097404 34.661049-11.45396 51.77829l-5.871914 3.971245c-12.677151-20.389916-6.568275-48.000634 13.643044-61.672509 4.933136-3.336944 10.251388-5.534759 15.655853-6.654647z" fill="#4a0" fill-rule="evenodd" stroke="#f3f3f3" stroke-linejoin="round" stroke-width=".079447"/><path d="m83.312889 42.312454.725494 4.328446c-2.809135.581894-5.573364 1.722961-8.137458 3.457473-10.504746 7.105912-13.679943 21.458008-7.090851 32.055199l-3.635269 2.458733c-7.84837-12.6232-4.066601-29.716095 8.446167-38.180786 3.054077-2.065934 6.346473-3.426499 9.692527-4.119904z" fill="#4a0" fill-rule="evenodd" stroke="#f3f3f3" stroke-linejoin="round" stroke-width=".049186"/><path d="m85.355492 54.583908.396042 2.362701c-1.533432.317627-3.042374.940537-4.442055 1.887238-5.734383 3.878845-7.467583 11.713364-3.870857 17.498222l-1.98436 1.342125c-4.284203-6.890579-2.219788-16.221389 4.610405-20.841385 1.667114-1.1277 3.464447-1.870559 5.290916-2.24887z" fill="#4a0" fill-rule="evenodd" stroke="#f3f3f3" stroke-linejoin="round" stroke-width=".026849"/><path d="m86.316101 64.823822c.845368-.00676 1.703644.239243 2.460785.763779l.028442.022247c1.997078 1.407471 2.52887 4.228394 1.194832 6.321686-.520569.816849 1.961823 49.256042.99984 50.401802h-8.5s1.7705-48.876885 1.415924-49.122505c-2.019035-1.398743-2.568314-4.2388-1.226845-6.343994.838455-1.315674 2.218231-2.031632 3.627121-2.042939z" stroke="#000" stroke-width=".116195"/><path d="m82.746643 120.120773c-.882774 2.372383.324799 5.011216 2.697182 5.89399l3.748871 1.394974c2.37239.882774 5.011215-.324791 5.893997-2.697174.882767-2.372391-.324799-5.011216-2.69719-5.893998l-3.74887-1.394973c-2.372383-.882767-5.011208.324798-5.89399 2.697181z" fill-rule="evenodd"/><path d="m109.131668 112.611671c-3.772484.031685-7.310844.596161-9.942985 2.115838l-58.808342 34.501647c-.588887.340012-.883381.752045-.891724 1.188965l-.000103 12.876023c-.006661.571899.474956 1.18602 1.428173 1.736343l22.246658 12.844147c1.685334.972992 3.716683 1.097107 5.071358.315033l58.819985-34.501694c2.691497-1.553909 4.00035-3.644821 3.998977-5.877838l.000397-12.957001c-.045364-2.919464-2.321015-6.072487-6.667023-8.581642-4.462478-2.5765-10.084686-3.703156-15.254303-3.659668z" fill="#929292" fill-rule="evenodd"/><path d="m60.28167 163.345001v12.869675c.649314.374863 2.880504 1.66301 2.880504 1.66301 1.685337.9729 3.716686 1.097 5.071308.314941 0 0 2.493187-1.437988 3.192696-1.841843v-12.869674c-.69941.403854-3.192696 1.841842-3.192696 1.841842-1.354522.782059-3.385971.658066-5.071308-.314941 0 0-2.23119-1.28804-2.880504-1.66301z" fill="url(#a)" fill-rule="evenodd" opacity=".3"/><path d="m40.915009 152.161682 22.244979 12.843277c1.685334.973007 3.720345 1.103211 5.071511.315354l58.836662-34.311738c6.223511-3.629295 5.051331-10.089813-2.667641-14.546295-7.719017-4.456535-18.960006-5.1445-25.198356-1.542259l-58.824978 34.308373c-1.362251.786438-1.146851 1.959472.538383 2.932327" fill="#747474" fill-rule="evenodd"/><path d="m131.062134 125.134499c-.126236 2.235061-1.300431 3.901268-2.837219 5.128685l-59.498002 34.787216c-2.6053 1.493591-4.035942.632385-5.80931-.183716l-21.168202-12.291367c-2.911877-1.43573-2.531738-2.439193-1.35709-3.339141" fill="none" filter="url(#b)" stroke="#fff" stroke-width=".363247"/><g fill-rule="evenodd"><path d="m22.672047 175.551315 19.506347 11.261566 19.506348-11.261566-19.506348-11.262451z" fill="#808080"/><path d="m22.95084 175.389679 19.785137-11.423203v-9.009689l-19.785137 11.423187z" fill="#4d4d4d"/><path d="m40.784981 184.400009 20.717773-12.066147v-1.608902l-20.717773 12.066147z" fill="#b3b3b3"/><path d="m24.0651 174.746735v-1.608918l16.720243 9.65329v1.608902z" fill="#ececec"/><path d="m40.784981 182.790833-16.720246-9.65329 20.899399-12.066132 16.720238 9.653275z" fill="#ccc"/><path d="m28.566633 172.952286 2.089939 1.206619 18.488348-10.674011-2.089939-1.206604zm3.483263 2.011123 2.089939 1.20662 18.48835-10.674012-2.089939-1.206619zm3.483265 2.011109 2.089939 1.206619 18.488346-10.673996-2.089939-1.206619zm3.483261 2.011123 2.089943 1.20662 18.488342-10.674011-2.089939-1.20662z" fill="#808080"/><path d="m42.178486 154.63559-19.507256 11.260635 19.507256 11.263367 19.507255-11.263367zm-1.393322 7.239502 2.786735 1.609176-5.573566 3.218369-2.786827-1.609192zm5.573471 3.218353 2.786831 1.609192-5.573567 3.218353-2.786735-1.609177z" fill="#808080"/><path d="m42.178303 186.812881v-9.653289l19.506351-11.262467v9.65329z" fill="#4d4d4d"/><path d="m35.490391 165.254181-.278668-.160874 5.573296-3.217727v.321777l-5.294594 3.056809z" fill="#333"/><path d="m40.784981 161.875092v.321762l2.507946 1.447998.278663-.160889-2.786647-1.608917z" fill="#e6e6e6"/><path d="m22.671141 165.896225v9.65419l19.507253 11.260651v-9.651474zm.27811.482437 18.951487 10.94281v9.007431l-18.951487-10.940094v-9.010238z" fill="#e6e6e6"/><path d="m41.063683 168.471649-.278664-.160889 5.573292-3.217727v.321777l-5.29459 3.056809z" fill="#333"/><path d="m46.358273 165.093445v.321777l2.507949 1.447998.278664-.160888-2.786648-1.608918z" fill="#e6e6e6"/><path d="m41.063679 168.471649 5.294594-3.056732 2.5084 1.448456-5.295044 3.056717z" opacity=".6"/><path d="m35.490391 165.254181 5.29459-3.056717 2.507946 1.44754-5.294594 3.056717z" opacity=".6"/></g><path d="m42.275925 177.104202 19.187595-11.079025" fill="none" filter="url(#c)" opacity=".24" stroke="#fff" stroke-width=".363247"/><path d="m67.031647 141.99501c-.797318.460358-.815781 1.233979-.141495 1.907502l-3.81765 2.204132c-.098163.056503-.161335.131378-.183357.21672l-1.522423 5.989029-1.226807.708313c-1.192783-.430099-2.595829-.434418-3.420005.041458-1.004841.580185-.769299 1.657868.525768 2.405701 1.295113.747681 3.161674.883682 4.166668.303543.795544-.459289.811767-1.231995.142212-1.904343l1.543377-.891067.008342.001633.000966-.008301 3.426662-1.978348.003311.00499 9.25837-.786133c.148826-.011658.279342-.047821.378372-.104172l3.489479-2.014664.960083.554291.480041.277161.372467-.214997 2.933144-1.693527.372467-.215042-.480041-.27716-3.534287-2.040497-.480041-.277161-.372467.215057-2.933197 1.693467-.372468.215042.480088.27716 1.134033.654801-3.338165 1.927337-6.125992.519364 13.148041-7.591004 1.848144 1.067048.66304.382797.117035-.448563.872147-3.434341.119324-.449936-.779984.065826-5.953979.503174-.776978.067505.663048.382782 1.788177 1.03241-16.863353 9.735977 1.060077-4.169968 3.645531-2.104706c1.191101.427307 2.589317.431275 3.411659-.043487 1.004845-.580185.772301-1.656128-.522766-2.403809-1.295113-.747742-3.161667-.883743-4.166664-.303558" fill="#fff" opacity=".76549"/><path d="m159.677704 31.5-5.636246 8.701889c5.543472 3.89888 10.46463 8.96756 14.394928 15.134872 16.101654 25.266396 9.511032 59.361207-14.722168 76.149537l5.572357 8.742736c28.864395-19.996963 36.714829-60.603302 17.534851-90.697097-4.681106-7.345749-10.541442-13.386551-17.143722-18.030426z" fill="#4a0" fill-rule="evenodd" stroke="#f3f3f3" stroke-linejoin="round" stroke-width=".116195"/><path d="m148.57251 48.691391-3.853745 5.949814c3.790375 2.665649 7.155136 6.131561 9.842591 10.348297 11.009384 17.275795 6.503173 40.588081-10.066163 52.065895l3.810151 5.977699c19.736114-13.67276 25.102905-41.437271 11.989349-62.015213-3.20076-5.022552-7.207611-9.152847-11.721924-12.328277z" fill="#4a0" fill-rule="evenodd" stroke="#f3f3f3" stroke-linejoin="round" stroke-width=".079447"/><path d="m139.424225 62.849762-2.38588 3.683655c2.346543 1.650329 4.429657 3.795944 6.093277 6.406585 6.81572 10.695313 4.025864 25.127259-6.231933 32.233201l2.35878 3.700897c12.218505-8.464638 15.540939-25.652725 7.422561-38.392899-1.981552-3.109512-4.462097-5.666427-7.257034-7.632446z" fill="#4a0" fill-rule="evenodd" stroke="#f3f3f3" stroke-linejoin="round" stroke-width=".049186"/><path d="m132.673141 73.298851-1.302383 2.010742c1.280914.900864 2.41806 2.072113 3.326233 3.497093 3.720673 5.838272 2.197678 13.71634-3.401764 17.595436l1.287582 2.02018c6.669693-4.620544 8.483384-14.003311 4.051697-20.957168-1.081665-1.697335-2.43576-3.093285-3.961456-4.166283z" fill="#4a0" fill-rule="evenodd" stroke="#f3f3f3" stroke-linejoin="round" stroke-width=".026849"/><path d="m124.912178 80.990486c-.845367-.006759-1.703644.239258-2.460785.763786l-.028442.022248c-1.997086 1.407463-2.528878 4.228401-1.194832 6.321678.520561.816849-1.698204 56.494499-.736221 57.640251h7.96553s-1.499649-56.115333-1.145073-56.360954c2.019035-1.398735 2.568306-4.2388 1.226845-6.343994-.838455-1.315682-2.218231-2.031624-3.627129-2.042939z" stroke="#000" stroke-width=".116195"/><path d="m115.913307 142.120773c-.882767 2.372391.324799 5.011216 2.69719 5.893998l3.74887 1.394973c2.372383.882767 5.011208-.324798 5.89399-2.697189.882767-2.372376-.324799-5.011215-2.697182-5.893982l-3.748871-1.394974c-2.37239-.882782-5.011215.324784-5.893997 2.697174z" fill-rule="evenodd"/></svg>