<?xml version="1.0" encoding="UTF-8"?>
<!-- Generated by Pixelmator Pro 3.7.1 -->
<svg width="100" height="139" viewBox="0 0 100 139" xmlns="http://www.w3.org/2000/svg">
    <g id="Layer-1">
        <g id="Group">
            <path id="Path" fill="#ffffff" fill-rule="evenodd" stroke="none" d="M 73.993309 129.993469 C 74.743309 129.994232 84.493301 130.004486 85.993301 130.006042 L 86.002754 121.006073 C 86.004059 119.763428 84.997757 118.755005 83.755119 118.753693 L 76.255119 118.745819 C 75.012482 118.744522 74.004066 119.750824 74.002762 120.993469 Z"/>
            <path id="Rectangle" fill="#d1d1d1" fill-opacity="0.797584" fill-rule="evenodd" stroke="none" d="M 75.987007 135.995544 L 83.987007 136.003937 L 83.993301 130.003967 L 75.993309 129.995544 L 75.987007 135.995544 Z M 81.98806 135.001862 L 80.98806 135.000793 L 80.990158 133.000793 L 81.990158 133.001862 L 81.98806 135.001862 Z M 77.98806 134.99765 L 78.98806 134.998688 L 78.990158 132.998688 L 77.990158 132.99765 L 77.98806 134.99765 Z"/>
            <path id="Rectangle-copy-3" fill="#ffffff" fill-opacity="0.797584" fill-rule="evenodd" stroke="none" opacity="0.599425" d="M 77.98806 134.99765 L 78.98806 134.998688 L 78.990158 132.998688 L 77.990158 132.99765 Z"/>
            <path id="Rectangle-copy-2" fill="#ffffff" fill-opacity="0.797584" fill-rule="evenodd" stroke="none" opacity="0.599425" d="M 80.98806 135.000793 L 81.98806 135.001862 L 81.990158 133.001862 L 80.990158 133.000793 Z"/>
        </g>
    </g>
    <g id="g1757-copy">
        <g id="g1">
            <path id="path768" fill="none" stroke="#ffffff" stroke-width="3" stroke-linejoin="round" d="M 30.321882 58.567657 C 18.082275 56.928177 19.174995 43.486015 19.174995 43.486015"/>
            <path id="path769" fill="none" stroke="#ffffff" stroke-width="3" stroke-linejoin="round" d="M 30.649778 53.279442 C 42.453243 51.093208 41.251488 37.104294 41.251488 37.104294"/>
            <path id="path770" fill="#000000" fill-rule="evenodd" stroke="#ffffff" stroke-width="4.102414" stroke-linecap="round" stroke-linejoin="round" d="M 27.53516 31.387993 L 33.327465 31.387993 L 30.486225 28 L 27.53516 31.387993 Z"/>
            <path id="path771" fill="#000000" fill-rule="evenodd" stroke="#ffffff" stroke-width="4.102414" stroke-linecap="round" stroke-linejoin="round" d="M 32.508118 66.032623 C 32.508118 67.118233 31.626356 68 30.540743 68 C 29.455132 68 28.573368 67.118233 28.573368 66.032623 C 28.573368 64.947014 29.455132 64.065247 30.540743 64.065247 C 31.626356 64.065247 32.508118 64.947014 32.508118 66.032623 Z"/>
            <path id="path772" fill="#000000" fill-rule="evenodd" stroke="#ffffff" stroke-width="4.102414" stroke-linecap="round" stroke-linejoin="round" d="M 21.251406 43.847099 C 21.251406 44.932709 20.369644 45.814476 19.284031 45.814476 C 18.198418 45.814476 17.316656 44.932709 17.316656 43.847099 C 17.316656 42.760696 18.198418 41.879723 19.284031 41.879723 C 20.369644 41.879723 21.251406 42.760696 21.251406 43.847099 Z"/>
            <path id="path1" fill="#ffffff" fill-rule="evenodd" stroke="none" d="M 38 43 L 45 43 L 45 36 L 38 36 Z"/>
            <path id="Rectangle-copy" fill="#ffffff" fill-rule="evenodd" stroke="none" d="M 29 63 L 32 63 L 32 34 L 29 34 Z"/>
        </g>
    </g>
    <g id="Group-copy">
        <g id="g2">
            <path id="Path-copy-2" fill="#b5b4b7" fill-rule="evenodd" stroke="none" d="M 27.994539 99 L 32.994541 99 L 32.994541 104 L 27.994539 104 L 27.994539 99 Z"/>
            <path id="Path-copy" fill="#ffffff" fill-rule="evenodd" stroke="none" d="M 26.994539 104 L 33.994541 104 L 33.994541 119 L 26.994539 119 L 26.994539 104 Z"/>
        </g>
        <g id="g3">
            <path id="Rounded-Corner" fill="#d1d1d1" fill-rule="evenodd" stroke="none" d="M 28.994539 119 C 28.994539 126.731964 35.262577 133 42.994541 133 L 42.994541 130.286819 C 36.761021 130.286819 31.70772 125.233521 31.70772 119 Z"/>
            <path id="Rounded-Corner-copy-3" fill="#d1d1d1" fill-rule="evenodd" stroke="none" d="M 42.994541 133 C 50.726505 133 56.994541 126.731964 56.994541 119 L 54.281361 119 C 54.281361 125.233521 49.228062 130.286819 42.994541 130.286819 Z"/>
            <g id="g4">
                <path id="Rounded-Corner-copy-5" fill="#d1d1d1" fill-rule="evenodd" stroke="none" d="M 82 118.994537 C 81.993965 111.262573 75.721039 104.999435 67.989075 105.005463 L 67.991196 107.718643 C 74.224716 107.713783 79.28196 112.76313 79.286819 118.996651 Z"/>
                <path id="Rounded-Corner-copy-6" fill="#d1d1d1" fill-rule="evenodd" stroke="none" d="M 67.982246 104.987732 C 60.250298 105.001297 53.993267 111.280319 54.006832 119.012268 L 56.720009 119.007507 C 56.709072 112.774002 61.753498 107.711838 67.987007 107.700912 Z"/>
            </g>
        </g>
    </g>
    <path id="Rounded-Rectangle-copy-4" fill="#ffffff" fill-rule="evenodd" stroke="none" d="M 17 92 C 10.924868 92 6 87.075134 6 81 L 6 17 C 6 10.924866 10.924868 6 17 6 L 44 6 C 50.07513 6 55 10.924866 55 17 L 55 81 C 55 87.075134 50.07513 92 44 92 L 17 92 Z M 21 87 C 15.477152 87 11 82.522842 11 77 L 11 21 C 11 15.47715 15.477152 11 21 11 L 40 11 C 45.522846 11 50 15.47715 50 21 L 50 77 C 50 82.522842 45.522846 87 40 87 L 21 87 Z"/>
</svg>
