<svg height="150" viewBox="0 0 150 150" width="150" xmlns="http://www.w3.org/2000/svg" xmlns:xlink="http://www.w3.org/1999/xlink"><linearGradient id="a" gradientUnits="userSpaceOnUse" x1="45.219448" x2="53.577754" y1="128.273038" y2="128.273038"><stop offset=".00001" stop-color="#fff" stop-opacity="0"/><stop offset=".5" stop-color="#fff"/><stop offset="1" stop-color="#999"/></linearGradient><filter id="b" color-interpolation-filters="sRGB" filterUnits="userSpaceOnUse" height="150" width="150" x="0" y="0"><feGaussianBlur stdDeviation=".149778"/></filter><filter id="c" color-interpolation-filters="sRGB" filterUnits="userSpaceOnUse" height="150" width="150" x="0" y="0"><feGaussianBlur stdDeviation=".058111"/></filter><g fill="#fff" fill-rule="evenodd" opacity=".33649" stroke="#f3f3f3" stroke-linejoin="round"><path d="m57.889404 4.121796 1.285435 7.668838c-4.977264 1.031082-9.874908 3.052765-14.418041 6.12587-18.612396 12.590057-24.238529 38.019585-12.564228 56.796631l-6.440872 4.356178c-13.905303-22.365662-7.205443-52.65213 14.96437-67.647057 5.411118-3.660369 11.244862-6.071167 17.172886-7.299407z" stroke-width=".087146"/><path d="m60.408443 19.263412.878918 5.24347c-3.40316.704864-6.75193 2.087349-9.858326 4.188446-12.726108 8.608413-16.573055 25.995788-8.590473 38.833717l-4.403934 2.978432c-9.507864-15.292435-4.926205-36.000473 10.23228-46.254379 3.699856-2.502701 7.688542-4.151062 11.74189-4.990983z" stroke-width=".059586"/><path d="m62.484669 31.734337.544121 3.246338c-2.106854.436416-4.180027 1.292221-6.103096 2.593109-7.87856 5.32943-10.259957 16.093498-5.318139 24.041397l-2.726451 1.844048c-5.886277-9.4674-3.04995-22.287072 6.334625-28.63559 2.290558-1.549454 4.759853-2.569878 7.269397-3.089928z" stroke-width=".03689"/><path d="m64.016617 40.937927.297035 1.772034c-1.150074.23822-2.28178.705398-3.331543 1.41542-4.300789 2.909142-5.600689 8.785027-2.903141 13.123673l-1.488274 1.006592c-3.21315-5.167931-1.66484-12.166039 3.457806-15.631043 1.250336-.845772 2.598335-1.402916 3.968185-1.686645z" stroke-width=".020137"/></g><path d="m64.737076 48.617867c.634025-.005074 1.277733.179435 1.845588.572837l.021332.016686c1.497811 1.055595 1.896652 3.171295.896126 4.741257-.390427.61264 1.471367 36.942039.749878 37.801353h-6.375s1.327873-36.657661 1.061943-36.841881c-1.514278-1.049049-1.926235-3.179092-.920135-4.757988.628841-.986763 1.663673-1.523727 2.720344-1.532203z" stroke="#000" stroke-width=".087146"/><path d="m62.059982 90.090576c-.662079 1.779297.243599 3.758415 2.022888 4.420502l2.811654 1.046226c1.779289.662079 3.758407-.243599 4.420494-2.02288.662079-1.779297-.243599-3.758415-2.022888-4.420502l-2.811654-1.046226c-1.779289-.662079-3.758407.243599-4.420494 2.02288z" fill-rule="evenodd"/><path d="m81.848747 84.458755c-2.829361.023766-5.483131.447121-7.457237 1.586876l-44.106255 25.876236c-.441665.255013-.662536.564042-.668792.891724l-.000077 9.657021c-.004997.428924.356217.889511 1.071129 1.302261l16.684994 9.633102c1.264.729752 2.787514.822831 3.80352.236283l44.114987-25.876274c2.018623-1.165429 3.000259-2.733612 2.999229-4.408379l.000305-9.717751c-.034027-2.189598-1.740761-4.554367-5.000267-6.436233-3.346863-1.932373-7.563515-2.777367-11.440735-2.744751z" fill="#929292" fill-rule="evenodd"/><path d="m45.211254 122.508759v9.652252c.486984.281143 2.160378 1.247253 2.160378 1.247253 1.264.729675 2.787513.822754 3.803482.236206 0 0 1.869888-1.078491 2.394523-1.381378v-9.652252c-.524559.302887-2.394523 1.381378-2.394523 1.381378-1.015892.586548-2.539482.493546-3.803482-.236206 0 0-1.673394-.966034-2.160378-1.247253z" fill="url(#a)" fill-rule="evenodd" opacity=".3"/><path d="m30.686256 114.121269 16.683735 9.632454c1.264.729752 2.790261.827408 3.803635.236511l44.127499-25.733795c4.667625-2.721977 3.78849-7.567367-2.000733-10.909729-5.789261-3.342399-14.220009-3.858375-18.898773-1.156692l-44.118729 25.731277c-1.02169.589829-.860138 1.469612.403786 2.199249" fill="#747474" fill-rule="evenodd"/><path d="m98.296608 93.850876c-.094681 1.676292-.975327 2.925949-2.12793 3.846512l-44.623493 26.090416c-1.953972 1.120186-3.026955.474281-4.356983-.137787l-15.87615-9.218529c-2.183909-1.076797-1.898804-1.829391-1.017819-2.504349" fill="none" filter="url(#b)" stroke="#fff" stroke-width=".272435"/><g fill-rule="evenodd"><path d="m17.004036 131.663483 14.629761 8.446167 14.62976-8.446167-14.62976-8.446839z" fill="#808080"/><path d="m17.213131 131.542252 14.838852-8.567391v-6.757271l-14.838852 8.567398z" fill="#4d4d4d"/><path d="m30.588734 138.300003 15.538334-9.049606v-1.206681l-15.538334 9.049607z" fill="#b3b3b3"/><path d="m18.048826 131.060043v-1.20668l12.540182 7.23996v1.20668z" fill="#ececec"/><path d="m30.588734 137.093124-12.540182-7.239959 15.674547-9.049607 12.54018 7.23996z" fill="#ccc"/><path d="m21.424976 129.714218 1.567454.904968 13.866258-8.005508-1.567451-.904961zm2.612448 1.508331 1.567453.904969 13.866261-8.005509-1.567455-.904953zm2.612448 1.508347 1.567453.904953 13.866259-8.005501-1.567452-.90496zm2.612444 1.508331 1.567457.904969 13.866257-8.005509-1.567452-.90496z" fill="#808080"/><path d="m31.633863 115.976685-14.630439 8.445488 14.630439 8.447517 14.630442-8.447517zm-1.04499 5.429626 2.090052 1.206894-4.180174 2.413765-2.090121-1.206886zm4.180105 2.413773 2.090122 1.206886-4.180175 2.41378-2.090052-1.206886z" fill="#808080"/><path d="m31.633728 140.10965v-7.23996l14.629761-8.446838v7.239959z" fill="#4d4d4d"/><path d="m26.617792 123.940643-.209-.120666 4.17997-2.413292v.241325l-3.970943 2.29261z" fill="#333"/><path d="m30.588734 121.406311v.241333l1.880962 1.085991.208996-.120667-2.089983-1.206687z" fill="#e6e6e6"/><path d="m17.003355 124.422173v7.240638l14.630442 8.445481v-7.238602zm.208584.361824 14.213613 8.207107v6.75557l-14.213613-8.205063v-6.757683z" fill="#e6e6e6"/><path d="m30.79776 126.353729-.208998-.120659 4.179968-2.413292v.241326l-3.970941 2.29261z" fill="#333"/><path d="m34.768707 123.820084v.241333l1.880959 1.085998.208996-.120666-2.089981-1.206688z" fill="#e6e6e6"/><path d="m30.79776 126.353729 3.970947-2.292541 1.881298 1.086334-3.971283 2.292549z" opacity=".6"/><path d="m26.617792 123.940643 3.970942-2.292541 1.880962 1.085647-3.970945 2.292542z" opacity=".6"/></g><path d="m31.706944 132.828156 14.390697-8.309273" fill="none" filter="url(#c)" opacity=".24" stroke="#fff" stroke-width=".272435"/><path d="m50.273739 106.496262c-.597992.345268-.611839.925483-.106125 1.430626l-2.863235 1.653099c-.073624.042381-.121003.098533-.13752.162544l-1.141816 4.491768-.920104.531234c-.894589-.32257-1.946873-.325813-2.565007.03109-.753631.435143-.576973 1.243401.394326 1.804276.971336.56076 2.371257.662765 3.125003.227661.596657-.344467.608826-.923996.106659-1.428261l1.157532-.668297.006256.001221.000725-.006218 2.57-1.483765.002479.003739 6.943779-.5896c.111618-.008736.209503-.035858.283775-.078125l2.617112-1.511001.720062.415725.360031.207863.27935-.161247 2.19986-1.270142.27935-.161285-.360031-.207863-2.650719-1.53038-.360031-.207863-.27935.161285-2.199898 1.270104-.27935.161285.360069.207863.850525.491104-2.503624 1.445503-4.594498.389519 9.861031-5.693245 1.386108.800286.497284.287094.087777-.336419.654102-2.575759.089493-.337449-.58498.049363-4.465485.377388-.582733.050621.497284.287094 1.341133.774307-12.647514 7.301979.795059-3.127479 2.734146-1.578522c.893326.320473 1.941986.323448 2.558746-.032616.753632-.435142.579224-1.242103-.392074-1.802864-.971337-.560799-2.371254-.662804-3.125-.227661" fill="#fff" opacity=".76549"/><g fill="#fff" fill-rule="evenodd" opacity=".33649" stroke="#f3f3f3" stroke-linejoin="round"><path d="m119.758278 23.625-4.227188 6.526421c4.157608 2.924156 7.84848 6.725669 10.796203 11.35115 12.076241 18.949799 7.133263 44.520905-11.041633 57.11216l4.179268 6.557037c21.648292-14.997719 27.536125-45.452469 13.151146-68.022819-3.510834-5.509316-7.906083-10.039917-12.857796-13.522812z" stroke-width=".087146"/><path d="m111.429382 36.518547-2.890304 4.462349c2.842773 1.999237 5.366356 4.598679 7.381943 7.76123 8.257034 12.956849 4.877372 30.441063-7.549622 39.049424l2.857605 4.483276c14.802093-10.25457 18.827194-31.077957 8.99202-46.511414-2.400574-3.766914-5.405709-6.864639-8.791451-9.2462z" stroke-width=".059586"/><path d="m104.568169 47.137321-1.789414 2.762742c1.759911 1.237747 3.322243 2.846954 4.569962 4.804939 5.111786 8.021484 3.019394 18.845444-4.67395 24.174896l1.769081 2.775673c9.163879-6.34848 11.655708-19.23954 5.566925-28.794678-1.486161-2.332123-3.346581-4.249809-5.442772-5.724327z" stroke-width=".03689"/><path d="m99.50486 54.974136-.976791 1.508057c.960693.675644 1.813537 1.554092 2.494682 2.622818 2.790497 4.378708 1.648247 10.287254-2.551331 13.196579l.965683 1.515137c5.002281-3.465409 6.362549-10.50248 3.03878-15.717881-.811248-1.272995-1.826828-2.319961-2.971099-3.12471z" stroke-width=".020137"/></g><path d="m93.684135 60.742867c-.634025-.005074-1.277732.179435-1.845588.572837l-.021332.016686c-1.497818 1.055595-1.89666 3.171295-.896126 4.741257.390419.61264-1.273651 42.370872-.55217 43.230186h5.974152s-1.124741-42.086494-.858803-42.270714c1.514275-1.049049 1.926232-3.179092.920136-4.757988-.628846-.986763-1.663674-1.523727-2.720352-1.532203z" stroke="#000" stroke-width=".087146"/><path d="m86.934982 106.590576c-.662079 1.779297.243599 3.758415 2.022888 4.420502l2.811654 1.046226c1.779289.662079 3.758407-.243599 4.420494-2.02288.662079-1.779297-.243599-3.758415-2.022888-4.420502l-2.811654-1.046226c-1.779289-.662079-3.758407.243599-4.420494 2.02288z" fill-rule="evenodd"/></svg>